<?xml version="1.0" encoding="utf-8"?>
<!-- Generator: Adobe Illustrator 15.1.0, SVG Export Plug-In . SVG Version: 6.00 Build 0)  -->
<!DOCTYPE svg PUBLIC "-//W3C//DTD SVG 1.1//EN" "http://www.w3.org/Graphics/SVG/1.1/DTD/svg11.dtd">
<svg version="1.1" id="hor._Roadchenko__x23_1-1_1_"
	 xmlns="http://www.w3.org/2000/svg" xmlns:xlink="http://www.w3.org/1999/xlink" x="0px" y="0px" width="2537.008px"
	 height="864.566px" viewBox="0 0 2537.008 864.566" enable-background="new 0 0 2537.008 864.566" xml:space="preserve">
<g id="Logo">
	<rect id="podloga" fill="#FFFFFF" width="2537.008" height="864.566"/>
	<g id="tekst_5_">
		<g id="haklab">
			<path fill="#333333" d="M963.708,682.846l65.555,8.288v34.304l-81.479-16.346l-80.096,16.577v-34.535l64.168-8.288v-5.066
				l-64.168-8.286V634.96l80.096,16.575l81.479-16.575v34.303l-65.555,8.517V682.846z"/>
			<path fill="#333333" d="M867.687,553.833l161.575-12.416v31.037l-39.702,1.772v13.747l39.702,1.772v31.041l-161.575-12.419
				V553.833z M958.169,575.558l-58.167,1.995v7.095l58.167,1.998V575.558z"/>
			<path fill="#333333" d="M1029.262,494.952v32.291H867.687v-32.291h64.398v-6.688l-64.398-10.379v-33.902l78.018,17.298
				l83.558-21.912v35.519l-65.784,12.688v7.377H1029.262z"/>
			<path fill="#333333" d="M867.687,331.653h161.575v31.862H899.08v10.47l130.183,12.746v38.465H997.87v-12.063l-130.183-12.746
				V331.653z"/>
			<path fill="#333333" d="M998.081,283.89l31.182,1.443v32.147l-161.575-12.859v-56.487l161.575-12.859v32.147l-39.702,1.837
				v14.236L998.081,283.89 M958.169,270.637l-58.167,2.067v7.347l58.167,2.067V270.637z"/>
			<path fill="#333333" d="M867.687,221.102v-82.205h32.315v49.509h30.93v-49.509h98.33v82.205H867.687z M997.87,171.592h-35.547
				v16.814h35.547V171.592z"/>
		</g>
		<g id="kika">
			<path fill="#333333" d="M1230.961,722.834h-116.66V138.897h116.66v232.74h24.163l37.5-232.74h122.493l-62.496,281.958
				l79.16,301.979h-128.325l-45.83-237.745h-26.665V722.834z"/>
			<path fill="#333333" d="M1766.27,138.897v583.937h-116.15V427.528l-73.841,295.306h-116.15V138.897h116.15v295.306
				l73.841-295.306H1766.27z"/>
			<path fill="#333333" d="M1916.948,722.834h-116.662V138.897h116.662v232.74h24.164l37.498-232.74h122.492l-62.498,281.958
				l79.162,301.979h-128.324l-45.83-237.745h-26.664V722.834z"/>
			<path fill="#333333" d="M2397.192,138.897l46.559,583.937h-116.395l-6.65-143.481h-51.547l-6.65,143.481h-116.396l46.559-583.937
				H2397.192z M2315.715,465.902l-7.482-210.217h-26.604l-7.482,210.217H2315.715z"/>
		</g>
	</g>
	<g id="simbol_5_">
		<path id="linii" fill="#333333" d="M652.359,599.467L520.891,468h79.413c-4.41-11.046-6.839-23.097-6.839-35.717
			c0-12.454,2.363-24.356,6.664-35.283H519.01l132.384-132.321c-22.336-9.729-40.266-27.672-49.978-50.017L469.284,346.83v-80.895
			c-10.97,4.34-22.927,6.726-35.44,6.726c-12.56,0-24.557-2.405-35.56-6.775v79.632L266.64,213.815
			c-9.466,22.368-27.136,40.417-49.238,50.378L350.299,397h-82.742c4.301,10.927,6.664,22.829,6.664,35.283
			c0,12.62-2.429,24.671-6.839,35.717h80.724L216.241,599.865c22.337,9.714,40.273,27.641,50,49.972l132.043-132.103v80.946
			c11.003-4.371,23-6.775,35.56-6.775c12.514,0,24.471,2.386,35.44,6.727v-82.521l132.638,132.641
			C611.886,626.622,629.959,608.932,652.359,599.467z M433.843,469.134c-20.353,0-36.851-16.498-36.851-36.851
			c0-20.352,16.498-36.851,36.851-36.851c20.354,0,36.851,16.499,36.851,36.851C470.694,452.636,454.197,469.134,433.843,469.134z"
			/>
		<path id="krug_7_" fill="#66CC99" d="M177.843,139.433c20.319,0,36.85,16.531,36.85,36.85s-16.531,36.85-36.85,36.85
			s-36.85-16.531-36.85-36.85S157.524,139.433,177.843,139.433 M177.843,79.905c-53.229,0-96.378,43.149-96.378,96.378
			s43.149,96.378,96.378,96.378s96.378-43.149,96.378-96.378S231.072,79.905,177.843,79.905L177.843,79.905z"/>
		<path id="krug_6_" fill="#9999CC" d="M177.843,395.433c20.319,0,36.85,16.531,36.85,36.851s-16.531,36.851-36.85,36.851
			s-36.85-16.531-36.85-36.851S157.524,395.433,177.843,395.433 M177.843,335.905c-53.229,0-96.378,43.149-96.378,96.378
			s43.149,96.378,96.378,96.378s96.378-43.149,96.378-96.378S231.072,335.905,177.843,335.905L177.843,335.905z"/>
		<path id="krug_5_" fill="#9999CC" d="M689.843,395.433c20.319,0,36.851,16.531,36.851,36.851s-16.531,36.851-36.851,36.851
			s-36.851-16.531-36.851-36.851S669.524,395.433,689.843,395.433 M689.843,335.905c-53.229,0-96.378,43.149-96.378,96.378
			s43.149,96.378,96.378,96.378s96.378-43.149,96.378-96.378S743.072,335.905,689.843,335.905L689.843,335.905z"/>
		<path id="krug_4_" fill="#66CC99" d="M177.843,651.433c20.319,0,36.85,16.531,36.85,36.851s-16.531,36.851-36.85,36.851
			s-36.85-16.531-36.85-36.851S157.524,651.433,177.843,651.433 M177.843,591.905c-53.229,0-96.378,43.149-96.378,96.378
			s43.149,96.378,96.378,96.378s96.378-43.149,96.378-96.378S231.072,591.905,177.843,591.905L177.843,591.905z"/>
		<path id="krug_3_" fill="#9999CC" d="M433.843,651.433c20.319,0,36.851,16.531,36.851,36.851s-16.531,36.851-36.851,36.851
			s-36.851-16.531-36.851-36.851S413.524,651.433,433.843,651.433 M433.843,591.905c-53.229,0-96.378,43.149-96.378,96.378
			s43.149,96.378,96.378,96.378s96.378-43.149,96.378-96.378S487.072,591.905,433.843,591.905L433.843,591.905z"/>
		<path id="krug_2_" fill="#66CC99" d="M689.843,651.433c20.319,0,36.851,16.531,36.851,36.851s-16.531,36.851-36.851,36.851
			s-36.851-16.531-36.851-36.851S669.524,651.433,689.843,651.433 M689.843,591.905c-53.229,0-96.378,43.149-96.378,96.378
			s43.149,96.378,96.378,96.378s96.378-43.149,96.378-96.378S743.072,591.905,689.843,591.905L689.843,591.905z"/>
		<path id="krug_1_" fill="#9999CC" d="M433.843,139.433c20.319,0,36.851,16.531,36.851,36.85s-16.531,36.85-36.851,36.85
			s-36.851-16.531-36.851-36.85S413.524,139.433,433.843,139.433 M433.843,79.905c-53.229,0-96.378,43.149-96.378,96.378
			s43.149,96.378,96.378,96.378s96.378-43.149,96.378-96.378S487.072,79.905,433.843,79.905L433.843,79.905z"/>
		<path id="krug" fill="#66CC99" d="M689.843,139.433c20.319,0,36.851,16.531,36.851,36.85s-16.531,36.85-36.851,36.85
			s-36.851-16.531-36.851-36.85S669.524,139.433,689.843,139.433 M689.843,79.905c-53.229,0-96.378,43.149-96.378,96.378
			s43.149,96.378,96.378,96.378s96.378-43.149,96.378-96.378S743.072,79.905,689.843,79.905L689.843,79.905z"/>
	</g>
</g>
</svg>
