<?xml version="1.0" encoding="utf-8"?>
<!-- Generator: Adobe Illustrator 15.1.0, SVG Export Plug-In . SVG Version: 6.00 Build 0)  -->
<!DOCTYPE svg PUBLIC "-//W3C//DTD SVG 1.1//EN" "http://www.w3.org/Graphics/SVG/1.1/DTD/svg11.dtd">
<svg version="1.1" id="hor._Roadchenko__x23_1-1_1_"
	 xmlns="http://www.w3.org/2000/svg" xmlns:xlink="http://www.w3.org/1999/xlink" x="0px" y="0px" width="2537.008px"
	 height="864.566px" viewBox="0 0 2537.008 864.566" enable-background="new 0 0 2537.008 864.566" xml:space="preserve">
<g id="Logo">
	<rect id="podloga" fill="#FFFFFF" width="2537.008" height="864.566"/>
	<g id="tekst_5_">
		<g id="haklab">
			<path d="M963.708,682.846l65.555,8.288v34.304l-81.479-16.346l-80.096,16.577v-34.535l64.168-8.288v-5.066l-64.168-8.286V634.96
				l80.096,16.575l81.479-16.575v34.303l-65.555,8.517V682.846z"/>
			<path d="M867.687,553.833l161.575-12.416v31.037l-39.702,1.772v13.747l39.702,1.772v31.041l-161.575-12.419V553.833z
				 M958.169,575.558l-58.167,1.995v7.095l58.167,1.998V575.558z"/>
			<path d="M1029.262,494.952v32.291H867.687v-32.291h64.398v-6.688l-64.398-10.379v-33.902l78.018,17.298l83.558-21.912v35.519
				l-65.784,12.688v7.377H1029.262z"/>
			<path d="M867.687,331.653h161.575v31.862H899.08v10.47l130.183,12.746v38.465H997.87v-12.063l-130.183-12.746V331.653z"/>
			<path d="M998.081,283.89l31.182,1.443v32.147l-161.575-12.859v-56.487l161.575-12.859v32.147l-39.702,1.837v14.236
				L998.081,283.89 M958.169,270.637l-58.167,2.067v7.347l58.167,2.067V270.637z"/>
			<path d="M867.687,221.102v-82.205h32.315v49.509h30.93v-49.509h98.33v82.205H867.687z M997.87,171.592h-35.547v16.814h35.547
				V171.592z"/>
		</g>
		<g id="kika">
			<path d="M1230.961,722.834h-116.66V138.897h116.66v232.74h24.163l37.5-232.74h122.493l-62.496,281.958l79.16,301.979h-128.325
				l-45.83-237.745h-26.665V722.834z"/>
			<path d="M1766.27,138.897v583.937h-116.15V427.528l-73.841,295.306h-116.15V138.897h116.15v295.306l73.841-295.306H1766.27z"/>
			<path d="M1916.948,722.834h-116.662V138.897h116.662v232.74h24.164l37.498-232.74h122.492l-62.498,281.958l79.162,301.979
				h-128.324l-45.83-237.745h-26.664V722.834z"/>
			<path d="M2397.192,138.897l46.559,583.937h-116.395l-6.65-143.481h-51.547l-6.65,143.481h-116.396l46.559-583.937H2397.192z
				 M2315.715,465.902l-7.482-210.217h-26.604l-7.482,210.217H2315.715z"/>
		</g>
	</g>
	<path id="simbol" d="M689.843,528.661c53.229,0,96.378-43.149,96.378-96.378s-43.149-96.378-96.378-96.378
		c-40.774,0-75.634,25.32-89.714,61.095H519.01l132.384-132.321c-0.002-0.001-0.003-0.001-0.005-0.002
		c11.78,5.132,24.783,7.985,38.454,7.985c53.229,0,96.378-43.149,96.378-96.378s-43.149-96.378-96.378-96.378
		s-96.378,43.149-96.378,96.378c0,13.647,2.843,26.629,7.959,38.395c-0.003-0.005-0.006-0.011-0.008-0.016L469.284,346.83v-80.895
		c-0.002,0-0.004,0.001-0.005,0.002c35.693-14.12,60.942-48.938,60.942-89.654c0-53.229-43.149-96.378-96.378-96.378
		s-96.378,43.206-96.378,96.435c0,40.669,25.191,75.66,60.82,89.66c0,0-0.001,0-0.001,0v79.519L266.64,213.815
		c4.882-11.535,7.582-24.218,7.582-37.532c0-53.229-43.149-96.378-96.378-96.378s-96.378,43.149-96.378,96.378
		s43.149,96.282,96.378,96.282c14.099,0,27.489-2.564,39.56-8.564L350.299,397h-82.742c0,0.002,0.001,0.003,0.002,0.005
		c-14.08-35.777-48.94-61.1-89.716-61.1c-53.229,0-96.378,43.149-96.378,96.378s43.149,96.378,96.378,96.378
		c40.609,0,75.348-25.116,89.539-60.661h80.724L216.241,599.865c-11.766-5.117-24.749-7.96-38.397-7.96
		c-53.229,0-96.378,43.149-96.378,96.378s43.149,96.378,96.378,96.378s96.378-43.149,96.378-96.378
		c0-13.672-2.853-26.677-7.986-38.458c0.001,0.004,0.003,0.008,0.005,0.012l132.043-132.103v80.946
		c-35.628,14.15-60.818,48.934-60.818,89.603c0,53.229,43.149,96.378,96.378,96.378s96.378-43.149,96.378-96.378
		c0-40.715-25.246-75.531-60.938-89.651v-82.521l132.638,132.641c-5.432,12.063-8.456,25.443-8.456,39.531
		c0,53.229,43.149,96.378,96.378,96.378s96.378-43.149,96.378-96.378s-43.149-96.378-96.378-96.378
		c-13.296,0-25.962,2.692-37.484,7.562L520.891,468h79.413c-0.002-0.005-0.004-0.01-0.006-0.015
		C614.487,503.538,649.229,528.661,689.843,528.661z M689.843,395.433c20.319,0,36.851,16.531,36.851,36.851
		s-16.531,36.851-36.851,36.851s-36.851-16.531-36.851-36.851S669.524,395.433,689.843,395.433z M689.843,139.433
		c20.319,0,36.851,16.531,36.851,36.85s-16.531,36.85-36.851,36.85s-36.851-16.531-36.851-36.85S669.524,139.433,689.843,139.433z
		 M177.843,213.133c-20.319,0-36.85-16.531-36.85-36.85s16.531-36.85,36.85-36.85s36.85,16.531,36.85,36.85
		S198.163,213.133,177.843,213.133z M177.843,469.134c-20.319,0-36.85-16.531-36.85-36.851s16.531-36.851,36.85-36.851
		s36.85,16.531,36.85,36.851S198.163,469.134,177.843,469.134z M177.843,725.134c-20.319,0-36.85-16.531-36.85-36.851
		s16.531-36.851,36.85-36.851s36.85,16.531,36.85,36.851S198.163,725.134,177.843,725.134z M396.993,176.283
		c0-20.319,16.531-36.85,36.851-36.85s36.851,16.531,36.851,36.85s-16.531,36.85-36.851,36.85S396.993,196.603,396.993,176.283z
		 M470.694,688.283c0,20.319-16.531,36.851-36.851,36.851s-36.851-16.531-36.851-36.851s16.531-36.851,36.851-36.851
		S470.694,667.964,470.694,688.283z M433.843,469.134c-20.353,0-36.851-16.498-36.851-36.851c0-20.352,16.498-36.851,36.851-36.851
		c20.354,0,36.851,16.499,36.851,36.851C470.694,452.636,454.197,469.134,433.843,469.134z M689.843,651.433
		c20.319,0,36.851,16.531,36.851,36.851s-16.531,36.851-36.851,36.851s-36.851-16.531-36.851-36.851
		S669.524,651.433,689.843,651.433z"/>
</g>
</svg>
