<svg version="1.1" id="svg2" xmlns:svg="http://www.w3.org/2000/svg" xmlns="http://www.w3.org/2000/svg" xmlns:xlink="http://www.w3.org/1999/xlink" x="0" y="0" viewBox="0 0 566.9 566.9" xml:space="preserve"><style type="text/css">
	.st0{fill:#99CCCC;}
	.st1{fill:#99CC66;}
	.st2{fill:#FFCC33;}
	.st3{fill:none;}
</style><metadata><x:xmpmeta xmlns:x="adobe:ns:meta/" x:xmptk="Adobe XMP Core 5.6-c143 79.161210, 2017/08/11-10:28:36        "/></metadata><symbol id="линија_23" viewBox="-129 -5.7 258 11.3"><g id="XMLID_11_"><path id="krug_50_" class="st0" d="M-41.1 2.2c1.2 0 2.2-1 2.2-2.2s-1-2.2-2.2-2.2 -2.2 1-2.2 2.2S-42.3 2.2-41.1 2.2M-41.1 5.7c-3.1 0-5.7-2.5-5.7-5.7s2.5-5.7 5.7-5.7 5.7 2.5 5.7 5.7S-38 5.7-41.1 5.7L-41.1 5.7z"/><path id="krug_49_" class="st1" d="M41.1 2.2c1.2 0 2.2-1 2.2-2.2s-1-2.2-2.2-2.2 -2.2 1-2.2 2.2S39.9 2.2 41.1 2.2M41.1 5.7c-3.1 0-5.7-2.5-5.7-5.7s2.5-5.7 5.7-5.7 5.7 2.5 5.7 5.7S44.2 5.7 41.1 5.7L41.1 5.7z"/><path id="krug_48_" class="st2" d="M-123.3 2.2c1.2 0 2.2-1 2.2-2.2s-1-2.2-2.2-2.2c-1.2 0-2.2 1-2.2 2.2S-124.5 2.2-123.3 2.2M-123.3 5.7c-3.1 0-5.7-2.5-5.7-5.7s2.5-5.7 5.7-5.7 5.7 2.5 5.7 5.7S-120.2 5.7-123.3 5.7L-123.3 5.7z"/><path id="krug_47_" class="st2" d="M123.3 2.2c1.2 0 2.2-1 2.2-2.2s-1-2.2-2.2-2.2 -2.2 1-2.2 2.2S122.1 2.2 123.3 2.2M123.3 5.7c-3.1 0-5.7-2.5-5.7-5.7s2.5-5.7 5.7-5.7S129-3.1 129 0 126.4 5.7 123.3 5.7L123.3 5.7z"/><path d="M-107.1 0.4l1.6 2.4h0.6l-1.9-2.8 2-2.9h-0.6l-1.7 2.5 -1.7-2.5h-0.6l2 2.9 -1.9 2.8h0.6L-107.1 0.4z"/><path d="M-100.8-1.3h-2.6l-0.6-1.6h-0.5l2.2 5.7h0.4l2.1-5.7h-0.5L-100.8-1.3zM-103.3-0.8h2.3l-1.1 3.1h0L-103.3-0.8z"/><path d="M-97.7-0.2h-0.8v-2.7h-0.5v5.7h0.5V0.2h0.8l2.2 2.6h0.5l0 0L-97.2 0l2.5-2.9 0 0h-0.6L-97.7-0.2z"/><path d="M-89.7 2.8v-5.7h-0.5v5.3h-2.4l-0.1-2.2c0-1.1-0.2-1.9-0.4-2.4s-0.6-0.7-1.2-0.7h-0.2v0.4h0.1c0.4 0 0.7 0.2 0.8 0.6s0.3 1.1 0.3 2.1l0.1 2.6H-89.7z"/><path d="M-85-1.3h-2.6l-0.6-1.6h-0.5l2.2 5.7h0.4l2.1-5.7h-0.5L-85-1.3zM-87.5-0.8h2.3l-1.1 3.1h0L-87.5-0.8z"/><path d="M-79.7 2.4h-3V0.4h1.4c0.6 0 1.1-0.1 1.4-0.4s0.5-0.7 0.5-1.2c0-0.5-0.2-0.9-0.5-1.2s-0.8-0.4-1.4-0.4h-1.9v5.7h3.4V2.4zM-82.7 0v-2.4h1.4c0.5 0 0.8 0.1 1.1 0.3s0.3 0.5 0.3 0.9c0 0.3-0.1 0.6-0.3 0.9S-80.8 0-81.3 0H-82.7z"/><path d="M-74.1-0.2h-0.8v-2.7h-0.5v5.7h0.5V0.2h0.8l2.2 2.6h0.5l0 0L-73.6 0l2.5-2.9 0 0h-0.6L-74.1-0.2z"/><path d="M-66.5 2.8h0.5v-5.7h-0.5V2l0 0 -3.2-4.9h-0.5v5.7h0.5V-2l0 0L-66.5 2.8z"/><path d="M-63.3-0.2H-64v-2.7h-0.5v5.7h0.5V0.2h0.8l2.2 2.6h0.5l0 0L-62.8 0l2.5-2.9 0 0h-0.6L-63.3-0.2z"/><path d="M-56.3-1.3H-59l-0.6-1.6H-60l2.2 5.7h0.4l2.1-5.7h-0.5L-56.3-1.3zM-58.8-0.8h2.3l-1.1 3.1h0L-58.8-0.8z"/><path d="M-24.9 0.4l1.6 2.4h0.6L-24.6 0l2-2.9h-0.6l-1.7 2.5 -1.7-2.5h-0.6l2 2.9 -1.9 2.8h0.6L-24.9 0.4z"/><path d="M-18.6-1.3h-2.6l-0.6-1.6h-0.5l2.2 5.7h0.4l2.1-5.7H-18L-18.6-1.3zM-21.1-0.8h2.3l-1.1 3.1h0L-21.1-0.8z"/><path d="M-15.4-0.2h-0.8v-2.7h-0.5v5.7h0.5V0.2h0.8l2.2 2.6h0.5l0 0L-15 0l2.5-2.9 0 0h-0.6L-15.4-0.2z"/><path d="M-7.4 2.8v-5.7h-0.5v5.3h-2.4l-0.1-2.2c0-1.1-0.2-1.9-0.4-2.4s-0.6-0.7-1.2-0.7h-0.2v0.4h0.1c0.4 0 0.7 0.2 0.8 0.6s0.3 1.1 0.3 2.1l0.1 2.6H-7.4z"/><path d="M-2.8-1.3h-2.6L-6-2.8h-0.5l2.2 5.7h0.4l2.1-5.7h-0.5L-2.8-1.3zM-5.3-0.8H-3l-1.1 3.1h0L-5.3-0.8z"/><path d="M2.5 2.4h-3V0.4h1.4c0.6 0 1.1-0.1 1.4-0.4s0.5-0.7 0.5-1.2c0-0.5-0.2-0.9-0.5-1.2S1.5-2.8 0.9-2.8h-1.9v5.7h3.4V2.4zM-0.5 0v-2.4h1.4c0.5 0 0.8 0.1 1.1 0.3s0.3 0.5 0.3 0.9c0 0.3-0.1 0.6-0.3 0.9S1.4 0 0.9 0H-0.5z"/><path d="M8.2-0.2H7.4v-2.7H6.9v5.7h0.5V0.2h0.8l2.2 2.6h0.5l0 0L8.6 0l2.5-2.9 0 0h-0.6L8.2-0.2z"/><path d="M15.7 2.8h0.5v-5.7h-0.5V2l0 0 -3.2-4.9H12v5.7h0.5V-2l0 0L15.7 2.8z"/><path d="M18.9-0.2h-0.8v-2.7h-0.5v5.7h0.5V0.2h0.8l2.2 2.6h0.5l0 0L19.4 0l2.5-2.9 0 0h-0.6L18.9-0.2z"/><path d="M25.9-1.3h-2.6l-0.6-1.6h-0.5l2.2 5.7h0.4l2.1-5.7h-0.5L25.9-1.3zM23.4-0.8h2.3l-1.1 3.1h0L23.4-0.8z"/><path d="M57.5 0.4l1.6 2.4h0.6L57.8 0l2-2.9h-0.6l-1.7 2.5 -1.7-2.5h-0.6l2 2.9 -1.9 2.8h0.6L57.5 0.4z"/><path d="M63.8-1.2h-2.6l-0.6-1.6h-0.5l2.2 5.7h0.4l2.1-5.7h-0.5L63.8-1.2zM61.3-0.8h2.3l-1.1 3.1h0L61.3-0.8z"/><path d="M66.9-0.2h-0.8v-2.7h-0.5v5.7h0.5V0.2h0.8l2.2 2.6h0.5l0 0 -2.4-2.8 2.5-2.9 0 0h-0.6L66.9-0.2z"/><path d="M74.9 2.9v-5.7h-0.5v5.3H72L72 0.3c0-1.1-0.2-1.9-0.4-2.4s-0.6-0.7-1.2-0.7h-0.2v0.4h0.1c0.4 0 0.7 0.2 0.8 0.6s0.3 1.1 0.3 2.1l0.1 2.6H74.9z"/><path d="M79.5-1.2h-2.6l-0.6-1.6h-0.5L78 2.9h0.4l2.1-5.7h-0.5L79.5-1.2zM77.1-0.8h2.3l-1.1 3.1h0L77.1-0.8z"/><path d="M84.9 2.5h-3V0.4h1.4c0.6 0 1.1-0.1 1.4-0.4s0.5-0.7 0.5-1.2c0-0.5-0.2-0.9-0.5-1.2s-0.8-0.4-1.4-0.4h-1.9v5.7h3.4V2.5zM81.9 0v-2.4h1.4c0.5 0 0.8 0.1 1.1 0.3s0.3 0.5 0.3 0.9c0 0.3-0.1 0.6-0.3 0.9S83.8 0 83.3 0H81.9z"/><path d="M90.5-0.2h-0.8v-2.7h-0.5v5.7h0.5V0.2h0.8l2.2 2.6h0.5l0 0L91 0.1l2.5-2.9 0 0h-0.6L90.5-0.2z"/><path d="M98.1 2.9h0.5v-5.7h-0.5V2l0 0 -3.2-4.9h-0.5v5.7h0.5V-2l0 0L98.1 2.9z"/><path d="M101.3-0.2h-0.8v-2.7h-0.5v5.7h0.5V0.2h0.8l2.2 2.6h0.5l0 0 -2.4-2.8 2.5-2.9 0 0h-0.6L101.3-0.2z"/><path d="M108.2-1.2h-2.6l-0.6-1.6h-0.5l2.2 5.7h0.4l2.1-5.7h-0.5L108.2-1.2zM105.8-0.8h2.3L107 2.2h0L105.8-0.8z"/></g></symbol><rect class="st3" width="566.9" height="566.9"/><g id="layer1" transform="translate(0,-343.70079)"><g id="Logo" transform="matrix(0.60332491,0,0,0.60332491,92.58242,437.2244)"><g id="simbol_3_"><path id="linii" d="M379.1 340.5h57.2c-3.2-8-4.9-16.6-4.9-25.7 0-9 1.7-17.5 4.8-25.4h-58.4l95.3-95.3c-16.1-7-29-19.9-36-36l-95.1 95.2v-58.2c-7.9 3.1-16.5 4.8-25.5 4.8 -9 0-17.7-1.7-25.6-4.9v57.3L196 157.5c-6.8 16.1-19.5 29.1-35.5 36.3l95.7 95.6h-59.6c3.1 7.9 4.8 16.4 4.8 25.4 0 9.1-1.7 17.8-4.9 25.7h58.1l-94.9 94.9c16.1 7 29 19.9 36 36l95.1-95.1v58.3c7.9-3.1 16.6-4.9 25.6-4.9 9 0 17.6 1.7 25.5 4.8v-59.4l95.5 95.5c7.2-15.9 20.2-28.7 36.3-35.5L379.1 340.5zM316.4 341.4c-14.7 0-26.5-11.9-26.5-26.5 0-14.7 11.9-26.5 26.5-26.5 14.7 0 26.5 11.9 26.5 26.5C342.9 329.5 331 341.4 316.4 341.4z"/><path id="krug" class="st2" d="M132.1 104c14.6 0 26.5 11.9 26.5 26.5 0 14.6-11.9 26.5-26.5 26.5 -14.6 0-26.5-11.9-26.5-26.5C105.5 115.9 117.4 104 132.1 104M132.1 61.1c-38.3 0-69.4 31.1-69.4 69.4s31.1 69.4 69.4 69.4 69.4-31.1 69.4-69.4S170.4 61.1 132.1 61.1L132.1 61.1z"/><path id="krug_1_" class="st1" d="M132.1 288.3c14.6 0 26.5 11.9 26.5 26.5s-11.9 26.5-26.5 26.5c-14.6 0-26.5-11.9-26.5-26.5S117.4 288.3 132.1 288.3M132.1 245.4c-38.3 0-69.4 31.1-69.4 69.4s31.1 69.4 69.4 69.4 69.4-31.1 69.4-69.4S170.4 245.4 132.1 245.4L132.1 245.4z"/><path id="krug_2_" class="st1" d="M500.7 288.3c14.6 0 26.5 11.9 26.5 26.5s-11.9 26.5-26.5 26.5 -26.5-11.9-26.5-26.5S486.1 288.3 500.7 288.3M500.7 245.4c-38.3 0-69.4 31.1-69.4 69.4s31.1 69.4 69.4 69.4 69.4-31.1 69.4-69.4S539 245.4 500.7 245.4L500.7 245.4z"/><path id="krug_3_" class="st2" d="M132.1 472.6c14.6 0 26.5 11.9 26.5 26.5s-11.9 26.5-26.5 26.5c-14.6 0-26.5-11.9-26.5-26.5S117.4 472.6 132.1 472.6M132.1 429.8c-38.3 0-69.4 31.1-69.4 69.4s31.1 69.4 69.4 69.4 69.4-31.1 69.4-69.4S170.4 429.8 132.1 429.8L132.1 429.8z"/><path id="krug_4_" class="st0" d="M316.4 472.6c14.6 0 26.5 11.9 26.5 26.5s-11.9 26.5-26.5 26.5 -26.5-11.9-26.5-26.5S301.8 472.6 316.4 472.6M316.4 429.8c-38.3 0-69.4 31.1-69.4 69.4s31.1 69.4 69.4 69.4 69.4-31.1 69.4-69.4S354.7 429.8 316.4 429.8L316.4 429.8 316.4 429.8z"/><path id="krug_5_" class="st2" d="M500.7 472.6c14.6 0 26.5 11.9 26.5 26.5s-11.9 26.5-26.5 26.5 -26.5-11.9-26.5-26.5S486.1 472.6 500.7 472.6M500.7 429.8c-38.3 0-69.4 31.1-69.4 69.4s31.1 69.4 69.4 69.4 69.4-31.1 69.4-69.4S539 429.8 500.7 429.8L500.7 429.8z"/><path id="krug_6_" class="st0" d="M316.4 104c14.6 0 26.5 11.9 26.5 26.5 0 14.6-11.9 26.5-26.5 26.5s-26.5-11.9-26.5-26.5C289.9 115.9 301.8 104 316.4 104M316.4 61.1c-38.3 0-69.4 31.1-69.4 69.4s31.1 69.4 69.4 69.4 69.4-31.1 69.4-69.4S354.7 61.1 316.4 61.1L316.4 61.1 316.4 61.1z"/><path id="krug_7_" class="st2" d="M500.7 104c14.6 0 26.5 11.9 26.5 26.5 0 14.6-11.9 26.5-26.5 26.5s-26.5-11.9-26.5-26.5C474.2 115.9 486.1 104 500.7 104M500.7 61.1c-38.3 0-69.4 31.1-69.4 69.4s31.1 69.4 69.4 69.4 69.4-31.1 69.4-69.4S539 61.1 500.7 61.1L500.7 61.1z"/></g></g></g><use xlink:href="#линија_23" width="258" height="11.3" x="-129" y="-5.7" transform="matrix(1 0 0 -1 160.1575 36.8504)"/><use xlink:href="#линија_23" width="258" height="11.3" x="-129" y="-5.7" transform="matrix(0 -1 -1 0 36.8504 160.1575)"/><use xlink:href="#линија_23" width="258" height="11.3" x="-129" y="-5.7" transform="matrix(0 -1 -1 0 36.8504 406.7716)"/><use xlink:href="#линија_23" width="258" height="11.3" x="-129" y="-5.7" transform="matrix(1 0 0 -1 406.7717 36.8504)"/><use xlink:href="#линија_23" width="258" height="11.3" x="-129" y="-5.7" transform="matrix(0 1 1 0 530.0878 160.1575)"/><use xlink:href="#линија_23" width="258" height="11.3" x="-129" y="-5.7" transform="matrix(0 1 1 0 530.0878 406.7716)"/><use xlink:href="#линија_23" width="258" height="11.3" x="-129" y="-5.7" transform="matrix(1 0 0 -1 160.1575 530.0787)"/><use xlink:href="#линија_23" width="258" height="11.3" x="-129" y="-5.7" transform="matrix(1 0 0 -1 406.7717 530.0787)"/><path d="M194.9 480.6h-0.8v-4.6h-5.7v4.6h-0.8v-10h0.8v4.7h5.7v-4.7h0.8V480.6z"/><path d="M204.3 471.4h-3.4v9.3H200v-9.3h-3.4v-0.7h7.7V471.4z"/><path d="M213 471.4h-3.4v9.3h-0.8v-9.3h-3.4v-0.7h7.7V471.4z"/><path d="M215.7 476.5v4.1h-0.8v-10h3.4c1 0 1.9 0.3 2.4 0.8 0.6 0.5 0.9 1.2 0.9 2.1 0 0.9-0.3 1.6-0.9 2.1s-1.4 0.8-2.4 0.8H215.7zM215.7 475.8h2.6c0.8 0 1.4-0.2 1.8-0.6 0.4-0.4 0.6-0.9 0.6-1.6 0-0.6-0.2-1.2-0.6-1.6 -0.4-0.4-1-0.6-1.9-0.6h-2.6V475.8z"/><path d="M224.5 474.4h-0.9v-1.1h0.9V474.4zM224.5 480.6h-0.9v-1.1h0.9V480.6z"/><path d="M226.7 481.5H226l4.2-10.8h0.7L226.7 481.5z"/><path d="M231 481.5h-0.7l4.2-10.8h0.7L231 481.5z"/><path d="M242.9 478.2c0-0.5-0.2-1-0.6-1.3s-1.1-0.6-2.1-0.9c-1.1-0.3-1.9-0.6-2.5-1.1s-0.8-1-0.8-1.8c0-0.8 0.3-1.4 0.9-1.9s1.4-0.7 2.4-0.7c1 0 1.9 0.3 2.5 0.9s0.9 1.3 0.9 2.1l0 0h-0.8c0-0.7-0.2-1.2-0.7-1.6s-1.1-0.6-1.9-0.6c-0.8 0-1.4 0.2-1.9 0.5s-0.7 0.8-0.7 1.3c0 0.5 0.2 0.9 0.6 1.3 0.4 0.3 1.1 0.6 2.1 0.9 1.1 0.3 1.9 0.6 2.4 1.1s0.8 1.1 0.8 1.8c0 0.8-0.3 1.4-1 1.9s-1.5 0.7-2.5 0.7c-1 0-1.9-0.2-2.6-0.7 -0.7-0.5-1.1-1.2-1.1-2.2l0 0h0.8c0 0.8 0.3 1.3 0.9 1.7 0.6 0.4 1.3 0.6 2 0.6 0.8 0 1.4-0.2 1.9-0.5S242.9 478.8 242.9 478.2z"/><path d="M252.6 471.4h-3.4v9.3h-0.8v-9.3h-3.4v-0.7h7.7V471.4z"/><path d="M259.3 477.9h-4.6l-1 2.8h-0.8l3.8-10h0.8l3.8 10h-0.8L259.3 477.9zM255 477.1h4l-2-5.4h0L255 477.1z"/><path d="M268.7 471.4h-3.4v9.3h-0.8v-9.3h-3.4v-0.7h7.7V471.4z"/><path d="M277.6 470.7v6.7c0 1.1-0.3 1.9-1 2.5s-1.5 0.9-2.6 0.9c-1.1 0-1.9-0.3-2.6-0.9 -0.7-0.6-1-1.4-1-2.5v-6.7h0.8v6.7c0 0.8 0.3 1.5 0.8 2s1.2 0.7 2 0.7c0.8 0 1.5-0.2 2-0.7s0.8-1.1 0.8-2v-6.7H277.6z"/><path d="M286 478.2c0-0.5-0.2-1-0.6-1.3 -0.4-0.3-1.1-0.6-2.1-0.9 -1.1-0.3-1.9-0.6-2.5-1.1s-0.8-1-0.8-1.8c0-0.8 0.3-1.4 0.9-1.9s1.4-0.7 2.4-0.7c1 0 1.9 0.3 2.5 0.9s0.9 1.3 0.9 2.1l0 0h-0.8c0-0.7-0.2-1.2-0.7-1.6s-1.1-0.6-1.9-0.6c-0.8 0-1.4 0.2-1.9 0.5s-0.7 0.8-0.7 1.3c0 0.5 0.2 0.9 0.6 1.3 0.4 0.3 1.1 0.6 2.1 0.9 1.1 0.3 1.9 0.6 2.4 1.1 0.6 0.5 0.8 1.1 0.8 1.8 0 0.8-0.3 1.4-1 1.9s-1.5 0.7-2.5 0.7c-1 0-1.9-0.2-2.6-0.7 -0.7-0.5-1.1-1.2-1.1-2.2l0 0h0.8c0 0.8 0.3 1.3 0.9 1.7 0.6 0.4 1.3 0.6 2 0.6 0.8 0 1.4-0.2 1.9-0.5S286 478.8 286 478.2z"/><path d="M289.8 480.6h-0.9v-1.1h0.9V480.6z"/><path d="M298.3 478.2c0-0.5-0.2-1-0.6-1.3 -0.4-0.3-1.1-0.6-2.1-0.9 -1.1-0.3-1.9-0.6-2.5-1.1s-0.8-1-0.8-1.8c0-0.8 0.3-1.4 0.9-1.9 0.6-0.5 1.4-0.7 2.4-0.7 1 0 1.9 0.3 2.5 0.9s0.9 1.3 0.9 2.1l0 0h-0.8c0-0.7-0.2-1.2-0.7-1.6s-1.1-0.6-1.9-0.6c-0.8 0-1.4 0.2-1.9 0.5 -0.4 0.4-0.7 0.8-0.7 1.3 0 0.5 0.2 0.9 0.6 1.3 0.4 0.3 1.1 0.6 2.1 0.9 1.1 0.3 1.9 0.6 2.4 1.1 0.6 0.5 0.8 1.1 0.8 1.8 0 0.8-0.3 1.4-1 1.9s-1.5 0.7-2.5 0.7c-1 0-1.9-0.2-2.6-0.7 -0.7-0.5-1.1-1.2-1.1-2.2l0 0h0.8c0 0.8 0.3 1.3 0.9 1.7 0.6 0.4 1.3 0.6 2 0.6 0.8 0 1.4-0.2 1.9-0.5S298.3 478.8 298.3 478.2z"/><path d="M302.1 476.5v4.1h-0.8v-10h3.4c1 0 1.9 0.3 2.4 0.8 0.6 0.5 0.9 1.2 0.9 2.1 0 0.9-0.3 1.6-0.9 2.1 -0.6 0.5-1.4 0.8-2.4 0.8H302.1zM302.1 475.8h2.6c0.8 0 1.4-0.2 1.8-0.6 0.4-0.4 0.6-0.9 0.6-1.6 0-0.6-0.2-1.2-0.6-1.6 -0.4-0.4-1-0.6-1.9-0.6h-2.6V475.8z"/><path d="M317.5 476.5c0 1.3-0.4 2.3-1.1 3.1s-1.6 1.2-2.8 1.2c-1.2 0-2.1-0.4-2.8-1.2 -0.7-0.8-1-1.8-1-3.1v-1.6c0-1.3 0.3-2.3 1-3.1 0.7-0.8 1.6-1.2 2.8-1.2 1.2 0 2.1 0.4 2.8 1.2 0.7 0.8 1.1 1.8 1.1 3.1V476.5zM316.7 474.9c0-1.1-0.3-1.9-0.8-2.6 -0.5-0.7-1.3-1-2.3-1 -0.9 0-1.7 0.3-2.2 1 -0.5 0.7-0.8 1.5-0.8 2.6v1.6c0 1.1 0.3 2 0.8 2.6 0.5 0.7 1.3 1 2.2 1 1 0 1.7-0.3 2.3-1s0.8-1.5 0.8-2.6V474.9z"/><path d="M320 480.6v-10h2.9c1.2 0 2.2 0.4 3 1.2s1.2 1.9 1.2 3.1v1.3c0 1.3-0.4 2.3-1.2 3.1s-1.8 1.2-3 1.2H320zM320.8 471.4v8.6h2.1c1 0 1.8-0.3 2.4-1 0.6-0.7 1-1.6 1-2.6V475c0-1-0.3-1.9-1-2.6s-1.4-1-2.4-1H320.8z"/><path d="M335 475.8h-4.8v4.1h5.5v0.7h-6.3v-10h6.3v0.7h-5.5v3.7h4.8V475.8z"/><path d="M338.6 480h4.9v0.7h-5.7v-10h0.8V480z"/><path d="M346.4 480.6h-0.8v-10h0.8V480.6z"/><path d="M350.3 480.6h-0.9v-1.1h0.9V480.6z"/><path d="M360.4 476.5c0 1.3-0.4 2.3-1.1 3.1 -0.7 0.8-1.6 1.2-2.8 1.2 -1.2 0-2.1-0.4-2.8-1.2 -0.7-0.8-1-1.8-1-3.1v-1.6c0-1.3 0.3-2.3 1-3.1s1.6-1.2 2.8-1.2c1.2 0 2.1 0.4 2.8 1.2s1.1 1.8 1.1 3.1V476.5zM359.6 474.9c0-1.1-0.3-1.9-0.8-2.6 -0.5-0.7-1.3-1-2.3-1 -0.9 0-1.7 0.3-2.2 1s-0.8 1.5-0.8 2.6v1.6c0 1.1 0.3 2 0.8 2.6 0.5 0.7 1.3 1 2.2 1 1 0 1.7-0.3 2.3-1 0.5-0.7 0.8-1.5 0.8-2.6V474.9z"/><path d="M363.6 476.1v4.5h-0.8v-9.9h3.4c1.1 0 1.9 0.2 2.5 0.7 0.6 0.5 0.9 1.2 0.9 2 0 0.5-0.2 1-0.5 1.4 -0.3 0.4-0.7 0.7-1.3 0.9 0.6 0.2 1.1 0.4 1.3 0.8 0.3 0.4 0.4 0.9 0.4 1.5v0.9c0 0.3 0 0.6 0.1 0.8s0.2 0.4 0.4 0.6v0.2h-0.8c-0.2-0.2-0.3-0.4-0.4-0.7s-0.1-0.6-0.1-0.9v-0.9c0-0.6-0.2-1.1-0.6-1.4 -0.4-0.4-0.9-0.5-1.7-0.5H363.6zM363.6 475.5h2.5c0.9 0 1.6-0.2 2-0.5 0.4-0.4 0.6-0.9 0.6-1.5 0-0.7-0.2-1.2-0.6-1.5 -0.4-0.4-1-0.5-1.9-0.5h-2.6V475.5z"/><path d="M379.4 479.5c-0.2 0.3-0.6 0.6-1.2 0.9 -0.6 0.3-1.3 0.4-2.2 0.4 -1.2 0-2.1-0.4-2.8-1.2 -0.7-0.8-1.1-1.8-1.1-3.1v-1.8c0-1.2 0.4-2.2 1.1-3 0.7-0.8 1.6-1.2 2.7-1.2 1.1 0 1.9 0.3 2.5 0.8 0.6 0.5 1 1.2 1 2.1l0 0h-0.8c-0.1-0.7-0.4-1.2-0.8-1.6 -0.4-0.4-1.1-0.6-1.9-0.6 -0.9 0-1.6 0.3-2.2 1 -0.5 0.6-0.8 1.5-0.8 2.5v1.8c0 1 0.3 1.9 0.9 2.6s1.3 1 2.3 1c0.7 0 1.2-0.1 1.7-0.3 0.5-0.2 0.8-0.4 0.9-0.6v-2.6H376v-0.7h3.5V479.5z"/><path d="M187.2 93.8l0.7-6.7h6.7V89h-4.8l-0.3 2.8c0.2-0.2 0.5-0.3 0.8-0.4 0.3-0.1 0.7-0.2 1-0.2 1.2 0 2.1 0.3 2.7 1.1 0.6 0.7 1 1.7 1 3 0 1.2-0.4 2.1-1.1 2.9 -0.7 0.8-1.7 1.2-3 1.2 -1.1 0-2.1-0.3-2.9-0.9 -0.8-0.6-1.2-1.4-1.1-2.5l0 0 2.3-0.1c0 0.5 0.2 1 0.5 1.3 0.3 0.3 0.7 0.5 1.2 0.5 0.6 0 1-0.2 1.2-0.6 0.3-0.4 0.4-0.9 0.4-1.6 0-0.7-0.1-1.3-0.4-1.7 -0.3-0.4-0.7-0.6-1.3-0.6 -0.5 0-0.8 0.1-1.1 0.3 -0.2 0.2-0.4 0.4-0.5 0.7L187.2 93.8z"/><path d="M202 94.9h-4.7V93h4.7V94.9z"/><path d="M213.1 88.9h-3.4v10.2h-2.4V88.9h-3.4v-1.9h9.2V88.9z"/><path d="M222.3 87.1h2.4v12.1h-2.4v-8.1l0 0 -4.9 8.1H215V87.1h2.4v8.1l0 0L222.3 87.1z"/><path d="M236.2 94.1h-1.3v5h-2.4V87.1h2.4V92h1.1l3.2-4.9h3l-4.1 5.6 4.4 6.5h-3L236.2 94.1z"/><path d="M250.5 96.5h-4.2l-0.8 2.6H243l4.2-12.1h2.5l4.1 12.1h-2.4L250.5 96.5zM246.8 94.6h3l-1.5-4.7h0L246.8 94.6z"/><path d="M263.8 88.9h-3.4v10.2H258V88.9h-3.4v-1.9h9.2V88.9z"/><path d="M270.2 100.2h-0.5l5-13.1h0.5L270.2 100.2z"/><path d="M291.3 95L291.3 95c0 1.4-0.4 2.4-1.2 3.1 -0.8 0.8-2 1.1-3.4 1.1 -1.5 0-2.6-0.5-3.5-1.4 -0.9-0.9-1.4-2.1-1.4-3.6v-2.4c0-1.5 0.4-2.7 1.3-3.6 0.9-0.9 2-1.4 3.5-1.4 1.5 0 2.7 0.4 3.5 1.1 0.8 0.8 1.3 1.8 1.2 3.1l0 0H289c0-0.8-0.2-1.4-0.6-1.8 -0.4-0.4-1-0.6-1.8-0.6 -0.7 0-1.3 0.3-1.7 0.9 -0.4 0.6-0.6 1.3-0.6 2.3v2.4c0 0.9 0.2 1.7 0.7 2.3s1.1 0.9 1.8 0.9c0.8 0 1.3-0.2 1.7-0.6 0.4-0.4 0.5-1 0.5-1.8H291.3z"/><path d="M301.7 88.9h-3.4v10.2h-2.4V88.9h-3.4v-1.9h9.2V88.9z"/><path d="M309.3 96.5h-4.2l-0.8 2.6h-2.4l4.2-12.1h2.5l4.1 12.1h-2.4L309.3 96.5zM305.7 94.6h3l-1.5-4.7h0L305.7 94.6z"/><path d="M324.1 99.1h-2.4v-5h-4.9v5h-2.4V87.1h2.4v5.2h4.9v-5.2h2.4V99.1z"/><path d="M339.5 88.9h-5.3v2.4h2.1c1.4 0 2.5 0.4 3.3 1.1 0.8 0.7 1.2 1.7 1.2 2.8 0 1.2-0.4 2.1-1.2 2.8 -0.8 0.7-1.9 1.1-3.3 1.1h-4.6V87.1h7.9V88.9zM334.2 93.2v4.1h2.1c0.7 0 1.2-0.2 1.6-0.6 0.4-0.4 0.6-0.9 0.6-1.5 0-0.6-0.2-1-0.6-1.4 -0.4-0.4-0.9-0.6-1.6-0.6H334.2z"/><path d="M345.4 94.8v4.4H343V87.1h4.8c1.4 0 2.5 0.4 3.3 1.1s1.2 1.6 1.2 2.8 -0.4 2.1-1.2 2.8 -1.9 1.1-3.3 1.1H345.4zM345.4 92.9h2.4c0.7 0 1.2-0.2 1.5-0.6 0.3-0.4 0.5-0.8 0.5-1.4 0-0.6-0.2-1.1-0.5-1.4 -0.3-0.4-0.9-0.6-1.5-0.6h-2.4V92.9z"/><path d="M354 99.1h-2.4V97h2.4V99.1z"/><path d="M367.1 99.1h-2.4v-9.9h-2.5v-1.7l4.9-0.4V99.1z"/><path d="M380.2 99.1h-8.3v-1.6l3.9-4.2c0.6-0.6 1-1.2 1.2-1.6 0.2-0.4 0.4-0.9 0.4-1.2 0-0.5-0.1-0.9-0.4-1.2 -0.3-0.3-0.7-0.5-1.2-0.5 -0.6 0-1 0.2-1.3 0.6 -0.3 0.4-0.4 0.9-0.4 1.5h-2.4l0 0c0-1.1 0.3-2 1.1-2.8 0.7-0.8 1.7-1.1 3-1.1 1.2 0 2.2 0.3 2.9 1s1.1 1.5 1.1 2.6c0 0.7-0.2 1.4-0.6 2 -0.4 0.6-1.1 1.4-2 2.4l-2.1 2.3 0 0h5.1V99.1z"/></svg>