<?xml version="1.0" encoding="UTF-8" standalone="no"?>
<!-- Created with Inkscape (http://www.inkscape.org/) -->

<svg
   xmlns:dc="http://purl.org/dc/elements/1.1/"
   xmlns:cc="http://creativecommons.org/ns#"
   xmlns:rdf="http://www.w3.org/1999/02/22-rdf-syntax-ns#"
   xmlns:svg="http://www.w3.org/2000/svg"
   xmlns="http://www.w3.org/2000/svg"
   xmlns:sodipodi="http://sodipodi.sourceforge.net/DTD/sodipodi-0.dtd"
   xmlns:inkscape="http://www.inkscape.org/namespaces/inkscape"
   width="20cm"
   height="20cm"
   viewBox="0 0 708.66142 708.66141"
   id="svg2"
   version="1.1"
   inkscape:version="0.91 r13725"
   sodipodi:docname="KIKA-logo-vertikalno-print-vrata-20x20cm.svg">
  <defs
     id="defs4" />
  <sodipodi:namedview
     id="base"
     pagecolor="#ffffff"
     bordercolor="#666666"
     borderopacity="1.0"
     inkscape:pageopacity="0.0"
     inkscape:pageshadow="2"
     inkscape:zoom="0.64"
     inkscape:cx="317.01659"
     inkscape:cy="316.31391"
     inkscape:document-units="cm"
     inkscape:current-layer="layer1"
     showgrid="true"
     units="cm"
     inkscape:window-width="1600"
     inkscape:window-height="846"
     inkscape:window-x="0"
     inkscape:window-y="0"
     inkscape:window-maximized="1"
     showguides="false">
    <inkscape:grid
       units="cm"
       dotted="false"
       empspacing="10"
       type="xygrid"
       id="grid4684" />
  </sodipodi:namedview>
  <metadata
     id="metadata7">
    <rdf:RDF>
      <cc:Work
         rdf:about="">
        <dc:format>image/svg+xml</dc:format>
        <dc:type
           rdf:resource="http://purl.org/dc/dcmitype/StillImage" />
        <dc:title></dc:title>
      </cc:Work>
    </rdf:RDF>
  </metadata>
  <g
     inkscape:label="Layer 1"
     inkscape:groupmode="layer"
     id="layer1"
     transform="translate(0,-343.70079)">
    <g
       id="Logo"
       transform="matrix(0.60332491,0,0,0.60332491,92.58242,437.2244)">
      <g
         id="simbol_3_">
        <path
           inkscape:connector-curvature="0"
           id="linii"
           d="m 520.891,468 79.413,0 c -4.41,-11.046 -6.839,-23.097 -6.839,-35.717 0,-12.454 2.363,-24.356 6.664,-35.283 l -81.119,0 132.384,-132.321 c -22.336,-9.729 -40.266,-27.672 -49.978,-50.017 l -132.132,132.168 0,-80.895 c -10.97,4.34 -22.927,6.726 -35.44,6.726 -12.56,0 -24.557,-2.405 -35.56,-6.775 l 0,79.632 L 266.64,213.815 c -9.466,22.368 -27.136,40.417 -49.238,50.378 L 350.299,397 l -82.742,0 c 4.301,10.927 6.664,22.829 6.664,35.283 0,12.62 -2.429,24.671 -6.839,35.717 l 80.724,0 -131.865,131.865 c 22.337,9.714 40.273,27.641 50,49.972 l 132.043,-132.103 0,80.946 c 11.003,-4.371 23,-6.775 35.56,-6.775 12.514,0 24.471,2.386 35.44,6.727 l 0,-82.521 132.638,132.641 c 9.965,-22.13 28.038,-39.82 50.438,-49.285 L 520.891,468 Z m -87.048,1.134 c -20.353,0 -36.851,-16.498 -36.851,-36.851 0,-20.352 16.498,-36.851 36.851,-36.851 20.354,0 36.851,16.499 36.851,36.851 0,20.353 -16.497,36.851 -36.851,36.851 z" />
        <path
           style="fill:#ffcc33"
           inkscape:connector-curvature="0"
           id="krug"
           d="m 177.843,139.433 c 20.319,0 36.85,16.531 36.85,36.85 0,20.319 -16.531,36.85 -36.85,36.85 -20.319,0 -36.85,-16.531 -36.85,-36.85 0,-20.319 16.531,-36.85 36.85,-36.85 m 0,-59.528 c -53.229,0 -96.378,43.149 -96.378,96.378 0,53.229 43.149,96.378 96.378,96.378 53.229,0 96.378,-43.149 96.378,-96.378 0,-53.229 -43.149,-96.378 -96.378,-96.378 l 0,0 z" />
        <path
           style="fill:#99cc66"
           inkscape:connector-curvature="0"
           id="krug_1_"
           d="m 177.843,395.433 c 20.319,0 36.85,16.531 36.85,36.851 0,20.32 -16.531,36.851 -36.85,36.851 -20.319,0 -36.85,-16.531 -36.85,-36.851 0,-20.32 16.531,-36.851 36.85,-36.851 m 0,-59.528 c -53.229,0 -96.378,43.149 -96.378,96.378 0,53.229 43.149,96.378 96.378,96.378 53.229,0 96.378,-43.149 96.378,-96.378 0,-53.229 -43.149,-96.378 -96.378,-96.378 l 0,0 z" />
        <path
           style="fill:#99cc66"
           inkscape:connector-curvature="0"
           id="krug_2_"
           d="m 689.843,395.433 c 20.319,0 36.851,16.531 36.851,36.851 0,20.32 -16.531,36.851 -36.851,36.851 -20.32,0 -36.851,-16.531 -36.851,-36.851 0,-20.32 16.532,-36.851 36.851,-36.851 m 0,-59.528 c -53.229,0 -96.378,43.149 -96.378,96.378 0,53.229 43.149,96.378 96.378,96.378 53.229,0 96.378,-43.149 96.378,-96.378 0,-53.229 -43.149,-96.378 -96.378,-96.378 l 0,0 z" />
        <path
           style="fill:#ffcc33"
           inkscape:connector-curvature="0"
           id="krug_3_"
           d="m 177.843,651.433 c 20.319,0 36.85,16.531 36.85,36.851 0,20.32 -16.531,36.851 -36.85,36.851 -20.319,0 -36.85,-16.531 -36.85,-36.851 0,-20.32 16.531,-36.851 36.85,-36.851 m 0,-59.528 c -53.229,0 -96.378,43.149 -96.378,96.378 0,53.229 43.149,96.378 96.378,96.378 53.229,0 96.378,-43.149 96.378,-96.378 0,-53.229 -43.149,-96.378 -96.378,-96.378 l 0,0 z" />
        <path
           style="fill:#99cccc"
           inkscape:connector-curvature="0"
           id="krug_4_"
           d="m 433.843,651.433 c 20.319,0 36.851,16.531 36.851,36.851 0,20.32 -16.531,36.851 -36.851,36.851 -20.32,0 -36.851,-16.531 -36.851,-36.851 0,-20.32 16.532,-36.851 36.851,-36.851 m 0,-59.528 c -53.229,0 -96.378,43.149 -96.378,96.378 0,53.229 43.149,96.378 96.378,96.378 53.229,0 96.378,-43.149 96.378,-96.378 0,-53.229 -43.149,-96.378 -96.378,-96.378 l 0,0 z" />
        <path
           style="fill:#ffcc33"
           inkscape:connector-curvature="0"
           id="krug_5_"
           d="m 689.843,651.433 c 20.319,0 36.851,16.531 36.851,36.851 0,20.32 -16.531,36.851 -36.851,36.851 -20.32,0 -36.851,-16.531 -36.851,-36.851 0,-20.32 16.532,-36.851 36.851,-36.851 m 0,-59.528 c -53.229,0 -96.378,43.149 -96.378,96.378 0,53.229 43.149,96.378 96.378,96.378 53.229,0 96.378,-43.149 96.378,-96.378 0,-53.229 -43.149,-96.378 -96.378,-96.378 l 0,0 z" />
        <path
           style="fill:#99cccc"
           inkscape:connector-curvature="0"
           id="krug_6_"
           d="m 433.843,139.433 c 20.319,0 36.851,16.531 36.851,36.85 0,20.319 -16.531,36.85 -36.851,36.85 -20.32,0 -36.851,-16.531 -36.851,-36.85 0,-20.319 16.532,-36.85 36.851,-36.85 m 0,-59.528 c -53.229,0 -96.378,43.149 -96.378,96.378 0,53.229 43.149,96.378 96.378,96.378 53.229,0 96.378,-43.149 96.378,-96.378 0,-53.229 -43.149,-96.378 -96.378,-96.378 l 0,0 z" />
        <path
           style="fill:#ffcc33"
           inkscape:connector-curvature="0"
           id="krug_7_"
           d="m 689.843,139.433 c 20.319,0 36.851,16.531 36.851,36.85 0,20.319 -16.531,36.85 -36.851,36.85 -20.32,0 -36.851,-16.531 -36.851,-36.85 0,-20.319 16.532,-36.85 36.851,-36.85 m 0,-59.528 c -53.229,0 -96.378,43.149 -96.378,96.378 0,53.229 43.149,96.378 96.378,96.378 53.229,0 96.378,-43.149 96.378,-96.378 0,-53.229 -43.149,-96.378 -96.378,-96.378 l 0,0 z" />
      </g>
    </g>
  </g>
</svg>
