<svg version="1.1" xmlns:svg="http://www.w3.org/2000/svg" xmlns="http://www.w3.org/2000/svg" x="0" y="0" viewBox="0 0 566.9 566.9" xml:space="preserve"><style type="text/css">
	.st0{fill:#99CCCC;}
	.st1{fill:#99CC66;}
	.st2{fill:none;}
	.st3{fill:#FFCC33;}
</style><path class="st0" d="M501.9 143.1c0-0.9-0.7-1.6-1.6-1.6s-1.6 0.7-1.6 1.6 0.7 1.6 1.6 1.6S501.9 144 501.9 143.1M504.6 143.1c0 2.3-1.9 4.3-4.3 4.3s-4.3-1.9-4.3-4.3 1.9-4.3 4.3-4.3S504.6 140.8 504.6 143.1z"/><path class="st1" d="M501.9 216.9c0-0.9-0.7-1.6-1.6-1.6s-1.6 0.7-1.6 1.6 0.7 1.6 1.6 1.6S501.9 217.7 501.9 216.9M504.6 216.9c0 2.3-1.9 4.3-4.3 4.3s-4.3-1.9-4.3-4.3 1.9-4.3 4.3-4.3S504.6 214.5 504.6 216.9z"/><path d="M503.2 80v-0.6l-2.8 1.9 -2.9-2v0.6l2.5 1.7 -2.5 1.7v0.6l2.9-2 2.8 1.9v-0.6l-2.4-1.6L503.2 80z"/><path d="M497.5 88.4v0.5l5.7-2.1v-0.4l-5.7-2.2v0.5l1.6 0.6v2.6L497.5 88.4zM502.6 86.5L502.6 86.5l-3.1 1.2v-2.3L502.6 86.5z"/><path d="M497.5 93.4V94l0 0 2.9-2.5 2.8 2.4 0 0v-0.5l-2.6-2.2v-0.8h2.6v-0.5h-5.7v0.5h2.7V91L497.5 93.4z"/><path d="M503.2 95.7l-2.6-0.1c-1 0-1.8-0.1-2.1-0.3s-0.6-0.4-0.6-0.8v-0.1h-0.4v0.2c0 0.6 0.2 1 0.7 1.2s1.3 0.4 2.4 0.4l2.2 0.1v2.4h-5.3V99h5.7V95.7z"/><path d="M497.5 104.2v0.5l5.7-2.1v-0.4l-5.7-2.2v0.5l1.6 0.6v2.6L497.5 104.2zM502.6 102.3L502.6 102.3l-3.1 1.2v-2.3L502.6 102.3z"/><path d="M503.2 109v-3.4h-5.7v1.9c0 0.6 0.1 1.1 0.4 1.4s0.7 0.5 1.2 0.5c0.5 0 0.9-0.2 1.2-0.5s0.4-0.8 0.4-1.4V106h2.1v3H503.2zM500.3 107.4c0 0.5-0.1 0.8-0.3 1.1s-0.5 0.3-0.9 0.3c-0.4 0-0.6-0.1-0.9-0.3s-0.3-0.6-0.3-1.1V106h2.4V107.4z"/><path d="M497.5 117v0.6l0 0 2.9-2.5 2.8 2.4 0 0v-0.5l-2.6-2.2v-0.8h2.6v-0.5h-5.7v0.5h2.7v0.8L497.5 117z"/><path d="M498.3 119L498.3 119l4.9 0v-0.5h-5.7v0.5l4.9 3.2 0 0h-4.9v0.5h5.7v-0.5L498.3 119z"/><path d="M497.5 127.8v0.6l0 0 2.9-2.5 2.8 2.4 0 0v-0.5l-2.6-2.2v-0.8h2.6v-0.5h-5.7v0.5h2.7v0.8L497.5 127.8z"/><path d="M497.5 132.9v0.5l5.7-2.1v-0.4l-5.7-2.2v0.5l1.6 0.6v2.6L497.5 132.9zM502.6 131L502.6 131l-3.1 1.2v-2.3L502.6 131z"/><path d="M503.2 153.7v-0.6l-2.8 1.9 -2.9-2v0.6l2.5 1.7 -2.5 1.7v0.6l2.9-2 2.8 1.9v-0.6l-2.4-1.6L503.2 153.7z"/><path d="M497.5 162.1v0.5l5.7-2.1V160l-5.7-2.2v0.5l1.6 0.6v2.6L497.5 162.1zM502.6 160.2L502.6 160.2l-3.1 1.2v-2.3L502.6 160.2z"/><path d="M497.5 167.1v0.6l0 0 2.9-2.5 2.8 2.4 0 0V167l-2.6-2.2V164h2.6v-0.5h-5.7v0.5h2.7v0.8L497.5 167.1z"/><path d="M503.2 169.4l-2.6-0.1c-1 0-1.8-0.1-2.1-0.3s-0.6-0.4-0.6-0.8V168h-0.4v0.2c0 0.6 0.2 1 0.7 1.2s1.3 0.4 2.4 0.4l2.2 0.1v2.4h-5.3v0.5h5.7V169.4z"/><path d="M497.5 177.9v0.5l5.7-2.1v-0.4l-5.7-2.2v0.5l1.6 0.6v2.6L497.5 177.9zM502.6 176L502.6 176l-3.1 1.2v-2.3L502.6 176z"/><path d="M503.2 182.7v-3.4h-5.7v1.9c0 0.6 0.1 1.1 0.4 1.4s0.7 0.5 1.2 0.5c0.5 0 0.9-0.2 1.2-0.5s0.4-0.8 0.4-1.4v-1.4h2.1v3H503.2zM500.3 181.1c0 0.5-0.1 0.8-0.3 1.1s-0.5 0.3-0.9 0.3c-0.4 0-0.6-0.1-0.9-0.3s-0.3-0.6-0.3-1.1v-1.4h2.4V181.1z"/><path d="M497.5 190.7v0.6l0 0 2.9-2.5 2.8 2.4 0 0v-0.5l-2.6-2.2v-0.8h2.6v-0.5h-5.7v0.5h2.7v0.8L497.5 190.7z"/><path d="M498.3 192.7L498.3 192.7l4.9 0v-0.5h-5.7v0.5l4.9 3.2 0 0h-4.9v0.5h5.7v-0.5L498.3 192.7z"/><path d="M497.5 201.5v0.6l0 0 2.9-2.5 2.8 2.4 0 0v-0.5l-2.6-2.2v-0.8h2.6v-0.5h-5.7v0.5h2.7v0.8L497.5 201.5z"/><path d="M497.5 206.6v0.5l5.7-2.1v-0.4l-5.7-2.2v0.5l1.6 0.6v2.6L497.5 206.6zM502.6 204.7L502.6 204.7l-3.1 1.2v-2.3L502.6 204.7z"/><path d="M503.2 227.2v-0.6l-2.8 1.9 -2.9-2v0.6l2.5 1.7 -2.5 1.7v0.6l2.9-2 2.8 1.9v-0.6l-2.4-1.6L503.2 227.2z"/><path d="M497.5 235.7v0.5l5.7-2.1v-0.4l-5.7-2.2v0.5l1.6 0.6v2.6L497.5 235.7zM502.6 233.8L502.6 233.8l-3.1 1.2v-2.3L502.6 233.8z"/><path d="M497.5 240.6v0.6l0 0 2.9-2.5 2.8 2.4 0 0v-0.5l-2.6-2.2v-0.8h2.6V237h-5.7v0.5h2.7v0.8L497.5 240.6z"/><path d="M503.2 242.9l-2.6-0.1c-1 0-1.8-0.1-2.1-0.3s-0.6-0.4-0.6-0.8v-0.1h-0.4v0.2c0 0.6 0.2 1 0.7 1.2s1.3 0.4 2.4 0.4l2.2 0.1v2.4h-5.3v0.5h5.7V242.9z"/><path d="M497.5 251.4v0.5l5.7-2.1v-0.4l-5.7-2.2v0.5l1.6 0.6v2.6L497.5 251.4zM502.6 249.6L502.6 249.6l-3.1 1.2v-2.3L502.6 249.6z"/><path d="M503.2 256.2v-3.4h-5.7v1.9c0 0.6 0.1 1.1 0.4 1.4s0.7 0.5 1.2 0.5c0.5 0 0.9-0.2 1.2-0.5s0.4-0.8 0.4-1.4v-1.4h2.1v3H503.2zM500.3 254.6c0 0.5-0.1 0.8-0.3 1.1s-0.5 0.3-0.9 0.3c-0.4 0-0.6-0.1-0.9-0.3s-0.3-0.6-0.3-1.1v-1.4h2.4V254.6z"/><path d="M497.5 264.2v0.6l0 0 2.9-2.5 2.8 2.4 0 0v-0.5l-2.6-2.2v-0.8h2.6v-0.5h-5.7v0.5h2.7v0.8L497.5 264.2z"/><path d="M498.3 266.2L498.3 266.2l4.9 0v-0.5h-5.7v0.5l4.9 3.2 0 0h-4.9v0.5h5.7v-0.5L498.3 266.2z"/><path d="M497.5 275v0.6l0 0 2.9-2.5 2.8 2.4 0 0v-0.5l-2.6-2.2v-0.8h2.6v-0.5h-5.7v0.5h2.7v0.8L497.5 275z"/><path d="M497.5 280.1v0.5l5.7-2.1V278l-5.7-2.2v0.5l1.6 0.6v2.6L497.5 280.1zM502.6 278.3L502.6 278.3l-3.1 1.2v-2.3L502.6 278.3z"/><rect x="490.4" y="76.5" class="st2" width="14.2" height="206.9"/><path class="st0" d="M501.9 350.1c0-0.9-0.7-1.6-1.6-1.6s-1.6 0.7-1.6 1.6 0.7 1.6 1.6 1.6S501.9 351 501.9 350.1M504.6 350.1c0 2.3-1.9 4.3-4.3 4.3s-4.3-1.9-4.3-4.3 1.9-4.3 4.3-4.3S504.6 347.7 504.6 350.1z"/><path class="st1" d="M501.9 423.8c0-0.9-0.7-1.6-1.6-1.6s-1.6 0.7-1.6 1.6 0.7 1.6 1.6 1.6S501.9 424.7 501.9 423.8M504.6 423.8c0 2.3-1.9 4.3-4.3 4.3s-4.3-1.9-4.3-4.3 1.9-4.3 4.3-4.3S504.6 421.4 504.6 423.8z"/><path d="M503.2 286.9v-0.6l-2.8 1.9 -2.9-2v0.6l2.5 1.7 -2.5 1.7v0.6l2.9-2 2.8 1.9v-0.6l-2.4-1.6L503.2 286.9z"/><path d="M497.5 295.4v0.5l5.7-2.1v-0.4l-5.7-2.2v0.5l1.6 0.6v2.6L497.5 295.4zM502.6 293.5L502.6 293.5l-3.1 1.2v-2.3L502.6 293.5z"/><path d="M497.5 300.3v0.6l0 0 2.9-2.5 2.8 2.4 0 0v-0.5l-2.6-2.2v-0.8h2.6v-0.5h-5.7v0.5h2.7v0.8L497.5 300.3z"/><path d="M503.2 302.6l-2.6-0.1c-1 0-1.8-0.1-2.1-0.3s-0.6-0.4-0.6-0.8v-0.1h-0.4v0.2c0 0.6 0.2 1 0.7 1.2s1.3 0.4 2.4 0.4l2.2 0.1v2.4h-5.3v0.5h5.7V302.6z"/><path d="M497.5 311.2v0.5l5.7-2.1v-0.4l-5.7-2.2v0.5l1.6 0.6v2.6L497.5 311.2zM502.6 309.3L502.6 309.3l-3.1 1.2v-2.3L502.6 309.3z"/><path d="M503.2 315.9v-3.4h-5.7v1.9c0 0.6 0.1 1.1 0.4 1.4s0.7 0.5 1.2 0.5c0.5 0 0.9-0.2 1.2-0.5s0.4-0.8 0.4-1.4v-1.4h2.1v3H503.2zM500.3 314.4c0 0.5-0.1 0.8-0.3 1.1s-0.5 0.3-0.9 0.3c-0.4 0-0.6-0.1-0.9-0.3s-0.3-0.6-0.3-1.1v-1.4h2.4V314.4z"/><path d="M497.5 323.9v0.6l0 0 2.9-2.5 2.8 2.4 0 0v-0.5l-2.6-2.2v-0.8h2.6v-0.5h-5.7v0.5h2.7v0.8L497.5 323.9z"/><path d="M498.3 325.9L498.3 325.9l4.9 0v-0.5h-5.7v0.5l4.9 3.2 0 0h-4.9v0.5h5.7v-0.5L498.3 325.9z"/><path d="M497.5 334.7v0.6l0 0 2.9-2.5 2.8 2.4 0 0v-0.5l-2.6-2.2v-0.8h2.6v-0.5h-5.7v0.5h2.7v0.8L497.5 334.7z"/><path d="M497.5 339.9v0.5l5.7-2.1v-0.4l-5.7-2.2v0.5l1.6 0.6v2.6L497.5 339.9zM502.6 338L502.6 338l-3.1 1.2v-2.3L502.6 338z"/><path d="M503.2 360.6v-0.6l-2.8 1.9 -2.9-2v0.6l2.5 1.7 -2.5 1.7v0.6l2.9-2 2.8 1.9v-0.6l-2.4-1.6L503.2 360.6z"/><path d="M497.5 369.1v0.5l5.7-2.1V367l-5.7-2.2v0.5l1.6 0.6v2.6L497.5 369.1zM502.6 367.2L502.6 367.2l-3.1 1.2V366L502.6 367.2z"/><path d="M497.5 374v0.6l0 0 2.9-2.5 2.8 2.4 0 0v-0.5l-2.6-2.2v-0.8h2.6v-0.5h-5.7v0.5h2.7v0.8L497.5 374z"/><path d="M503.2 376.3l-2.6-0.1c-1 0-1.8-0.1-2.1-0.3s-0.6-0.4-0.6-0.8v-0.1h-0.4v0.2c0 0.6 0.2 1 0.7 1.2s1.3 0.4 2.4 0.4l2.2 0.1v2.4h-5.3v0.5h5.7V376.3z"/><path d="M497.5 384.9v0.5l5.7-2.1v-0.4l-5.7-2.2v0.5l1.6 0.6v2.6L497.5 384.9zM502.6 383L502.6 383l-3.1 1.2v-2.3L502.6 383z"/><path d="M503.2 389.6v-3.4h-5.7v1.9c0 0.6 0.1 1.1 0.4 1.4s0.7 0.5 1.2 0.5c0.5 0 0.9-0.2 1.2-0.5s0.4-0.8 0.4-1.4v-1.4h2.1v3H503.2zM500.3 388.1c0 0.5-0.1 0.8-0.3 1.1s-0.5 0.3-0.9 0.3c-0.4 0-0.6-0.1-0.9-0.3s-0.3-0.6-0.3-1.1v-1.4h2.4V388.1z"/><path d="M497.5 397.6v0.6l0 0 2.9-2.5 2.8 2.4 0 0v-0.5l-2.6-2.2v-0.8h2.6V394h-5.7v0.5h2.7v0.8L497.5 397.6z"/><path d="M498.3 399.6L498.3 399.6l4.9 0v-0.5h-5.7v0.5l4.9 3.2 0 0h-4.9v0.5h5.7v-0.5L498.3 399.6z"/><path d="M497.5 408.4v0.6l0 0 2.9-2.5 2.8 2.4 0 0v-0.5l-2.6-2.2v-0.8h2.6v-0.5h-5.7v0.5h2.7v0.8L497.5 408.4z"/><path d="M497.5 413.6v0.5l5.7-2.1v-0.4l-5.7-2.2v0.5l1.6 0.6v2.6L497.5 413.6zM502.6 411.7L502.6 411.7l-3.1 1.2v-2.3L502.6 411.7z"/><path d="M503.2 434.1v-0.6l-2.8 1.9 -2.9-2v0.6l2.5 1.7 -2.5 1.7v0.6l2.9-2 2.8 1.9v-0.6l-2.4-1.6L503.2 434.1z"/><path d="M497.5 442.6v0.5l5.7-2.1v-0.4l-5.7-2.2v0.5l1.6 0.6v2.6L497.5 442.6zM502.6 440.7L502.6 440.7l-3.1 1.2v-2.3L502.6 440.7z"/><path d="M497.5 447.6v0.6l0 0 2.9-2.5 2.8 2.4 0 0v-0.5l-2.6-2.2v-0.8h2.6v-0.5h-5.7v0.5h2.7v0.8L497.5 447.6z"/><path d="M503.2 449.8l-2.6-0.1c-1 0-1.8-0.1-2.1-0.3s-0.6-0.4-0.6-0.8v-0.1h-0.4v0.2c0 0.6 0.2 1 0.7 1.2s1.3 0.4 2.4 0.4l2.2 0.1v2.4h-5.3v0.5h5.7V449.8z"/><path d="M497.5 458.4v0.5l5.7-2.1v-0.4l-5.7-2.2v0.5l1.6 0.6v2.6L497.5 458.4zM502.6 456.5L502.6 456.5l-3.1 1.2v-2.3L502.6 456.5z"/><path d="M503.2 463.1v-3.4h-5.7v1.9c0 0.6 0.1 1.1 0.4 1.4s0.7 0.5 1.2 0.5c0.5 0 0.9-0.2 1.2-0.5s0.4-0.8 0.4-1.4v-1.4h2.1v3H503.2zM500.3 461.6c0 0.5-0.1 0.8-0.3 1.1s-0.5 0.3-0.9 0.3c-0.4 0-0.6-0.1-0.9-0.3s-0.3-0.6-0.3-1.1v-1.4h2.4V461.6z"/><path d="M497.5 471.2v0.6l0 0 2.9-2.5 2.8 2.4 0 0V471l-2.6-2.2V468h2.6v-0.5h-5.7v0.5h2.7v0.8L497.5 471.2z"/><path d="M498.3 473.1L498.3 473.1l4.9 0v-0.5h-5.7v0.5l4.9 3.2 0 0h-4.9v0.5h5.7v-0.5L498.3 473.1z"/><path d="M497.5 481.9v0.6l0 0 2.9-2.5 2.8 2.4 0 0v-0.5l-2.6-2.2v-0.8h2.6v-0.5h-5.7v0.5h2.7v0.8L497.5 481.9z"/><path d="M497.5 487.1v0.5l5.7-2.1V485l-5.7-2.2v0.5l1.6 0.6v2.6L497.5 487.1zM502.6 485.2L502.6 485.2l-3.1 1.2V484L502.6 485.2z"/><rect x="490.4" y="283.5" class="st2" width="14.2" height="206.9"/><path class="st0" d="M423.8 501.9c0.9 0 1.6-0.7 1.6-1.6s-0.7-1.6-1.6-1.6 -1.6 0.7-1.6 1.6S422.9 501.9 423.8 501.9M423.8 504.6c-2.3 0-4.3-1.9-4.3-4.3s1.9-4.3 4.3-4.3 4.3 1.9 4.3 4.3S426.1 504.6 423.8 504.6z"/><path class="st1" d="M350.1 501.9c0.9 0 1.6-0.7 1.6-1.6s-0.7-1.6-1.6-1.6 -1.6 0.7-1.6 1.6S349.2 501.9 350.1 501.9M350.1 504.6c-2.3 0-4.3-1.9-4.3-4.3s1.9-4.3 4.3-4.3 4.3 1.9 4.3 4.3S352.4 504.6 350.1 504.6z"/><path d="M486.9 503.2h0.6l-1.9-2.8 2-2.9H487l-1.7 2.5 -1.7-2.5h-0.6l2 2.9 -1.9 2.8h0.6l1.6-2.4L486.9 503.2z"/><path d="M478.5 497.5H478l2.1 5.7h0.4l2.2-5.7h-0.5l-0.6 1.6h-2.6L478.5 497.5zM480.4 502.6L480.4 502.6l-1.2-3.1h2.3L480.4 502.6z"/><path d="M473.5 497.5H473l0 0 2.5 2.9 -2.4 2.8 0 0h0.5l2.2-2.6h0.8v2.6h0.5v-5.7h-0.5v2.7h-0.8L473.5 497.5z"/><path d="M471.3 503.2l0.1-2.6c0-1 0.1-1.8 0.3-2.1s0.4-0.6 0.8-0.6h0.1v-0.4h-0.2c-0.6 0-1 0.2-1.2 0.7s-0.4 1.3-0.4 2.4l-0.1 2.2h-2.4v-5.3h-0.5v5.7H471.3z"/><path d="M462.7 497.5h-0.5l2.1 5.7h0.4l2.2-5.7h-0.5l-0.6 1.6h-2.6L462.7 497.5zM464.6 502.6L464.6 502.6l-1.2-3.1h2.3L464.6 502.6z"/><path d="M458 503.2h3.4v-5.7h-1.9c-0.6 0-1.1 0.1-1.4 0.4s-0.5 0.7-0.5 1.2c0 0.5 0.2 0.9 0.5 1.2s0.8 0.4 1.4 0.4h1.4v2.1h-3V503.2zM459.5 500.3c-0.5 0-0.8-0.1-1.1-0.3s-0.3-0.5-0.3-0.9c0-0.4 0.1-0.6 0.3-0.9s0.6-0.3 1.1-0.3h1.4v2.4H459.5z"/><path d="M449.9 497.5h-0.6l0 0 2.5 2.9 -2.4 2.8 0 0h0.5l2.2-2.6h0.8v2.6h0.5v-5.7h-0.5v2.7h-0.8L449.9 497.5z"/><path d="M447.9 498.3L447.9 498.3l0 4.9h0.5v-5.7H448l-3.2 4.9 0 0v-4.9h-0.5v5.7h0.5L447.9 498.3z"/><path d="M439.1 497.5h-0.6l0 0 2.5 2.9 -2.4 2.8 0 0h0.5l2.2-2.6h0.8v2.6h0.5v-5.7h-0.5v2.7h-0.8L439.1 497.5z"/><path d="M434 497.5h-0.5l2.1 5.7h0.4l2.2-5.7h-0.5l-0.6 1.6h-2.6L434 497.5zM435.9 502.6L435.9 502.6l-1.2-3.1h2.3L435.9 502.6z"/><path d="M413.2 503.2h0.6l-1.9-2.8 2-2.9h-0.6l-1.7 2.5 -1.7-2.5h-0.6l2 2.9 -1.9 2.8h0.6l1.6-2.4L413.2 503.2z"/><path d="M404.8 497.5h-0.5l2.1 5.7h0.4l2.2-5.7h-0.5l-0.6 1.6h-2.6L404.8 497.5zM406.7 502.6L406.7 502.6l-1.2-3.1h2.3L406.7 502.6z"/><path d="M399.8 497.5h-0.6l0 0 2.5 2.9 -2.4 2.8 0 0h0.5l2.2-2.6h0.8v2.6h0.5v-5.7H403v2.7h-0.8L399.8 497.5z"/><path d="M397.6 503.2l0.1-2.6c0-1 0.1-1.8 0.3-2.1s0.4-0.6 0.8-0.6h0.1v-0.4h-0.2c-0.6 0-1 0.2-1.2 0.7s-0.4 1.3-0.4 2.4l-0.1 2.2h-2.4v-5.3h-0.5v5.7H397.6z"/><path d="M389 497.5h-0.5l2.1 5.7h0.4l2.2-5.7h-0.5l-0.6 1.6h-2.6L389 497.5zM390.9 502.6L390.9 502.6l-1.2-3.1h2.3L390.9 502.6z"/><path d="M384.3 503.2h3.4v-5.7h-1.9c-0.6 0-1.1 0.1-1.4 0.4s-0.5 0.7-0.5 1.2c0 0.5 0.2 0.9 0.5 1.2s0.8 0.4 1.4 0.4h1.4v2.1h-3V503.2zM385.8 500.3c-0.5 0-0.8-0.1-1.1-0.3s-0.3-0.5-0.3-0.9c0-0.4 0.1-0.6 0.3-0.9s0.6-0.3 1.1-0.3h1.4v2.4H385.8z"/><path d="M376.2 497.5h-0.6l0 0 2.5 2.9 -2.4 2.8 0 0h0.5l2.2-2.6h0.8v2.6h0.5v-5.7h-0.5v2.7h-0.8L376.2 497.5z"/><path d="M374.2 498.3L374.2 498.3l0 4.9h0.5v-5.7h-0.5l-3.2 4.9 0 0v-4.9h-0.5v5.7h0.5L374.2 498.3z"/><path d="M365.4 497.5h-0.6l0 0 2.5 2.9 -2.4 2.8 0 0h0.5l2.2-2.6h0.8v2.6h0.5v-5.7h-0.5v2.7h-0.8L365.4 497.5z"/><path d="M360.3 497.5h-0.5l2.1 5.7h0.4l2.2-5.7h-0.5l-0.6 1.6h-2.6L360.3 497.5zM362.2 502.6L362.2 502.6l-1.2-3.1h2.3L362.2 502.6z"/><path d="M339.7 503.2h0.6l-1.9-2.8 2-2.9h-0.6l-1.7 2.5 -1.7-2.5h-0.6l2 2.9 -1.9 2.8h0.6l1.6-2.4L339.7 503.2z"/><path d="M331.3 497.5h-0.5l2.1 5.7h0.4l2.2-5.7h-0.5l-0.6 1.6h-2.6L331.3 497.5zM333.2 502.6L333.2 502.6l-1.2-3.1h2.3L333.2 502.6z"/><path d="M326.3 497.5h-0.6l0 0 2.5 2.9 -2.4 2.8 0 0h0.5l2.2-2.6h0.8v2.6h0.5v-5.7h-0.5v2.7h-0.8L326.3 497.5z"/><path d="M324 503.2l0.1-2.6c0-1 0.1-1.8 0.3-2.1s0.4-0.6 0.8-0.6h0.1v-0.4h-0.2c-0.6 0-1 0.2-1.2 0.7s-0.4 1.3-0.4 2.4l-0.1 2.2h-2.4v-5.3h-0.5v5.7H324z"/><path d="M315.5 497.5H315l2.1 5.7h0.4l2.2-5.7h-0.5l-0.6 1.6h-2.6L315.5 497.5zM317.4 502.6L317.4 502.6l-1.2-3.1h2.3L317.4 502.6z"/><path d="M310.8 503.2h3.4v-5.7h-1.9c-0.6 0-1.1 0.1-1.4 0.4s-0.5 0.7-0.5 1.2c0 0.5 0.2 0.9 0.5 1.2s0.8 0.4 1.4 0.4h1.4v2.1h-3V503.2zM312.3 500.3c-0.5 0-0.8-0.1-1.1-0.3s-0.3-0.5-0.3-0.9c0-0.4 0.1-0.6 0.3-0.9s0.6-0.3 1.1-0.3h1.4v2.4H312.3z"/><path d="M302.7 497.5h-0.6l0 0 2.5 2.9 -2.4 2.8 0 0h0.5l2.2-2.6h0.8v2.6h0.5v-5.7h-0.5v2.7h-0.8L302.7 497.5z"/><path d="M300.7 498.3L300.7 498.3l0 4.9h0.5v-5.7h-0.5l-3.2 4.9 0 0v-4.9H297v5.7h0.5L300.7 498.3z"/><path d="M291.9 497.5h-0.6l0 0 2.5 2.9 -2.4 2.8 0 0h0.5l2.2-2.6h0.8v2.6h0.5v-5.7h-0.5v2.7h-0.8L291.9 497.5z"/><path d="M286.8 497.5h-0.5l2.1 5.7h0.4l2.2-5.7h-0.5l-0.6 1.6h-2.6L286.8 497.5zM288.7 502.6L288.7 502.6l-1.2-3.1h2.3L288.7 502.6z"/><rect x="283.5" y="490.4" class="st2" width="206.9" height="14.2"/><path class="st0" d="M216.9 501.9c0.9 0 1.6-0.7 1.6-1.6s-0.7-1.6-1.6-1.6 -1.6 0.7-1.6 1.6S216 501.9 216.9 501.9M216.9 504.6c-2.3 0-4.3-1.9-4.3-4.3s1.9-4.3 4.3-4.3 4.3 1.9 4.3 4.3S219.2 504.6 216.9 504.6z"/><path class="st1" d="M143.1 501.9c0.9 0 1.6-0.7 1.6-1.6s-0.7-1.6-1.6-1.6 -1.6 0.7-1.6 1.6S142.3 501.9 143.1 501.9M143.1 504.6c-2.3 0-4.3-1.9-4.3-4.3s1.9-4.3 4.3-4.3 4.3 1.9 4.3 4.3S145.5 504.6 143.1 504.6z"/><path d="M280 503.2h0.6l-1.9-2.8 2-2.9h-0.6l-1.7 2.5 -1.7-2.5h-0.6l2 2.9 -1.9 2.8h0.6l1.6-2.4L280 503.2z"/><path d="M271.6 497.5h-0.5l2.1 5.7h0.4l2.2-5.7h-0.5l-0.6 1.6h-2.6L271.6 497.5zM273.5 502.6L273.5 502.6l-1.2-3.1h2.3L273.5 502.6z"/><path d="M266.6 497.5H266l0 0 2.5 2.9 -2.4 2.8 0 0h0.5l2.2-2.6h0.8v2.6h0.5v-5.7h-0.5v2.7H269L266.6 497.5z"/><path d="M264.3 503.2l0.1-2.6c0-1 0.1-1.8 0.3-2.1s0.4-0.6 0.8-0.6h0.1v-0.4h-0.2c-0.6 0-1 0.2-1.2 0.7s-0.4 1.3-0.4 2.4l-0.1 2.2h-2.4v-5.3H261v5.7H264.3z"/><path d="M255.8 497.5h-0.5l2.1 5.7h0.4l2.2-5.7h-0.5l-0.6 1.6h-2.6L255.8 497.5zM257.7 502.6L257.7 502.6l-1.2-3.1h2.3L257.7 502.6z"/><path d="M251 503.2h3.4v-5.7h-1.9c-0.6 0-1.1 0.1-1.4 0.4s-0.5 0.7-0.5 1.2c0 0.5 0.2 0.9 0.5 1.2s0.8 0.4 1.4 0.4h1.4v2.1h-3V503.2zM252.6 500.3c-0.5 0-0.8-0.1-1.1-0.3s-0.3-0.5-0.3-0.9c0-0.4 0.1-0.6 0.3-0.9s0.6-0.3 1.1-0.3h1.4v2.4H252.6z"/><path d="M243 497.5h-0.6l0 0 2.5 2.9 -2.4 2.8 0 0h0.5l2.2-2.6h0.8v2.6h0.5v-5.7h-0.5v2.7h-0.8L243 497.5z"/><path d="M241 498.3L241 498.3l0 4.9h0.5v-5.7H241l-3.2 4.9 0 0v-4.9h-0.5v5.7h0.5L241 498.3z"/><path d="M232.2 497.5h-0.6l0 0 2.5 2.9 -2.4 2.8 0 0h0.5l2.2-2.6h0.8v2.6h0.5v-5.7h-0.5v2.7h-0.8L232.2 497.5z"/><path d="M227.1 497.5h-0.5l2.1 5.7h0.4l2.2-5.7h-0.5l-0.6 1.6h-2.6L227.1 497.5zM229 502.6L229 502.6l-1.2-3.1h2.3L229 502.6z"/><path d="M206.3 503.2h0.6l-1.9-2.8 2-2.9h-0.6l-1.7 2.5 -1.7-2.5h-0.6l2 2.9 -1.9 2.8h0.6l1.6-2.4L206.3 503.2z"/><path d="M197.9 497.5h-0.5l2.1 5.7h0.4l2.2-5.7h-0.5l-0.6 1.6h-2.6L197.9 497.5zM199.8 502.6L199.8 502.6l-1.2-3.1h2.3L199.8 502.6z"/><path d="M192.9 497.5h-0.6l0 0 2.5 2.9 -2.4 2.8 0 0h0.5l2.2-2.6h0.8v2.6h0.5v-5.7H196v2.7h-0.8L192.9 497.5z"/><path d="M190.6 503.2l0.1-2.6c0-1 0.1-1.8 0.3-2.1s0.4-0.6 0.8-0.6h0.1v-0.4h-0.2c-0.6 0-1 0.2-1.2 0.7s-0.4 1.3-0.4 2.4l-0.1 2.2h-2.4v-5.3h-0.5v5.7H190.6z"/><path d="M182.1 497.5h-0.5l2.1 5.7h0.4l2.2-5.7h-0.5l-0.6 1.6h-2.6L182.1 497.5zM184 502.6L184 502.6l-1.2-3.1h2.3L184 502.6z"/><path d="M177.3 503.2h3.4v-5.7h-1.9c-0.6 0-1.1 0.1-1.4 0.4s-0.5 0.7-0.5 1.2c0 0.5 0.2 0.9 0.5 1.2s0.8 0.4 1.4 0.4h1.4v2.1h-3V503.2zM178.9 500.3c-0.5 0-0.8-0.1-1.1-0.3s-0.3-0.5-0.3-0.9c0-0.4 0.1-0.6 0.3-0.9s0.6-0.3 1.1-0.3h1.4v2.4H178.9z"/><path d="M169.3 497.5h-0.6l0 0 2.5 2.9 -2.4 2.8 0 0h0.5l2.2-2.6h0.8v2.6h0.5v-5.7h-0.5v2.7h-0.8L169.3 497.5z"/><path d="M167.3 498.3L167.3 498.3l0 4.9h0.5v-5.7h-0.5l-3.2 4.9 0 0v-4.9h-0.5v5.7h0.5L167.3 498.3z"/><path d="M158.5 497.5h-0.6l0 0 2.5 2.9 -2.4 2.8 0 0h0.5l2.2-2.6h0.8v2.6h0.5v-5.7h-0.5v2.7h-0.8L158.5 497.5z"/><path d="M153.4 497.5h-0.5l2.1 5.7h0.4l2.2-5.7h-0.5l-0.6 1.6H154L153.4 497.5zM155.3 502.6L155.3 502.6l-1.2-3.1h2.3L155.3 502.6z"/><path d="M132.8 503.2h0.6l-1.9-2.8 2-2.9h-0.6l-1.7 2.5 -1.7-2.5H129l2 2.9 -1.9 2.8h0.6l1.6-2.4L132.8 503.2z"/><path d="M124.3 497.5h-0.5l2.1 5.7h0.4l2.2-5.7h-0.5l-0.6 1.6h-2.6L124.3 497.5zM126.2 502.6L126.2 502.6l-1.2-3.1h2.3L126.2 502.6z"/><path d="M119.4 497.5h-0.6l0 0 2.5 2.9 -2.4 2.8 0 0h0.5l2.2-2.6h0.8v2.6h0.5v-5.7h-0.5v2.7h-0.8L119.4 497.5z"/><path d="M117.1 503.2l0.1-2.6c0-1 0.1-1.8 0.3-2.1s0.4-0.6 0.8-0.6h0.1v-0.4h-0.2c-0.6 0-1 0.2-1.2 0.7s-0.4 1.3-0.4 2.4l-0.1 2.2h-2.4v-5.3h-0.5v5.7H117.1z"/><path d="M108.6 497.5h-0.5l2.1 5.7h0.4l2.2-5.7h-0.5l-0.6 1.6h-2.6L108.6 497.5zM110.4 502.6L110.4 502.6l-1.2-3.1h2.3L110.4 502.6z"/><path d="M103.8 503.2h3.4v-5.7h-1.9c-0.6 0-1.1 0.1-1.4 0.4s-0.5 0.7-0.5 1.2c0 0.5 0.2 0.9 0.5 1.2s0.8 0.4 1.4 0.4h1.4v2.1h-3V503.2zM105.4 500.3c-0.5 0-0.8-0.1-1.1-0.3s-0.3-0.5-0.3-0.9c0-0.4 0.1-0.6 0.3-0.9s0.6-0.3 1.1-0.3h1.4v2.4H105.4z"/><path d="M95.8 497.5h-0.6l0 0 2.5 2.9 -2.4 2.8 0 0h0.5l2.2-2.6h0.8v2.6h0.5v-5.7h-0.5v2.7h-0.8L95.8 497.5z"/><path d="M93.8 498.3L93.8 498.3l0 4.9h0.5v-5.7h-0.5l-3.2 4.9 0 0v-4.9h-0.5v5.7h0.5L93.8 498.3z"/><path d="M85 497.5h-0.6l0 0 2.5 2.9 -2.4 2.8 0 0h0.5l2.2-2.6h0.8v2.6h0.5v-5.7h-0.5v2.7h-0.8L85 497.5z"/><path d="M79.9 497.5h-0.5l2.1 5.7H82l2.2-5.7h-0.5l-0.6 1.6h-2.6L79.9 497.5zM81.7 502.6L81.7 502.6l-1.2-3.1h2.3L81.7 502.6z"/><rect x="76.5" y="490.4" class="st2" width="206.9" height="14.2"/><path class="st0" d="M65 423.8c0 0.9 0.7 1.6 1.6 1.6s1.6-0.7 1.6-1.6 -0.7-1.6-1.6-1.6C65.7 422.2 65 422.9 65 423.8M62.4 423.8c0-2.3 1.9-4.3 4.3-4.3s4.3 1.9 4.3 4.3S69 428 66.6 428 62.4 426.1 62.4 423.8z"/><path class="st1" d="M65 350.1c0 0.9 0.7 1.6 1.6 1.6 0.9 0 1.6-0.7 1.6-1.6 0-0.9-0.7-1.6-1.6-1.6C65.7 348.5 65 349.2 65 350.1M62.4 350.1c0-2.3 1.9-4.3 4.3-4.3 2.3 0 4.3 1.9 4.3 4.3 0 2.3-1.9 4.3-4.3 4.3C64.3 354.3 62.4 352.4 62.4 350.1z"/><path d="M63.8 486.9v0.6l2.8-1.9 2.9 2V487l-2.5-1.7 2.5-1.7v-0.6l-2.9 2 -2.8-1.9v0.6l2.4 1.6L63.8 486.9z"/><path d="M69.5 478.5V478l-5.7 2.1v0.4l5.7 2.2v-0.5l-1.6-0.6v-2.6L69.5 478.5zM64.4 480.4L64.4 480.4l3.1-1.2v2.3L64.4 480.4z"/><path d="M69.5 473.5V473l0 0 -2.9 2.5 -2.8-2.4 0 0v0.5l2.6 2.2v0.8h-2.6v0.5h5.7v-0.5h-2.7v-0.8L69.5 473.5z"/><path d="M63.8 471.3l2.6 0.1c1 0 1.8 0.1 2.1 0.3s0.6 0.4 0.6 0.8v0.1h0.4v-0.2c0-0.6-0.2-1-0.7-1.2s-1.3-0.4-2.4-0.4l-2.2-0.1v-2.4h5.3v-0.5h-5.7V471.3z"/><path d="M69.5 462.7v-0.5l-5.7 2.1v0.4l5.7 2.2v-0.5l-1.6-0.6v-2.6L69.5 462.7zM64.4 464.6L64.4 464.6l3.1-1.2v2.3L64.4 464.6z"/><path d="M63.8 458v3.4h5.7v-1.9c0-0.6-0.1-1.1-0.4-1.4s-0.7-0.5-1.2-0.5c-0.5 0-0.9 0.2-1.2 0.5s-0.4 0.8-0.4 1.4v1.4h-2.1v-3H63.8zM66.6 459.5c0-0.5 0.1-0.8 0.3-1.1s0.5-0.3 0.9-0.3c0.4 0 0.6 0.1 0.9 0.3s0.3 0.6 0.3 1.1v1.4h-2.4V459.5z"/><path d="M69.5 449.9v-0.6l0 0 -2.9 2.5 -2.8-2.4 0 0v0.5l2.6 2.2v0.8h-2.6v0.5h5.7v-0.5h-2.7v-0.8L69.5 449.9z"/><path d="M68.6 447.9L68.6 447.9l-4.9 0v0.5h5.7V448l-4.9-3.2 0 0h4.9v-0.5h-5.7v0.5L68.6 447.9z"/><path d="M69.5 439.1v-0.6l0 0 -2.9 2.5 -2.8-2.4 0 0v0.5l2.6 2.2v0.8h-2.6v0.5h5.7v-0.5h-2.7v-0.8L69.5 439.1z"/><path d="M69.5 434v-0.5l-5.7 2.1v0.4l5.7 2.2v-0.5l-1.6-0.6v-2.6L69.5 434zM64.4 435.9L64.4 435.9l3.1-1.2v2.3L64.4 435.9z"/><path d="M63.8 413.2v0.6l2.8-1.9 2.9 2v-0.6l-2.5-1.7 2.5-1.7v-0.6l-2.9 2 -2.8-1.9v0.6l2.4 1.6L63.8 413.2z"/><path d="M69.5 404.8v-0.5l-5.7 2.1v0.4l5.7 2.2v-0.5l-1.6-0.6v-2.6L69.5 404.8zM64.4 406.7L64.4 406.7l3.1-1.2v2.3L64.4 406.7z"/><path d="M69.5 399.8v-0.6l0 0 -2.9 2.5 -2.8-2.4 0 0v0.5l2.6 2.2v0.8h-2.6v0.5h5.7V403h-2.7v-0.8L69.5 399.8z"/><path d="M63.8 397.6l2.6 0.1c1 0 1.8 0.1 2.1 0.3s0.6 0.4 0.6 0.8v0.1h0.4v-0.2c0-0.6-0.2-1-0.7-1.2s-1.3-0.4-2.4-0.4l-2.2-0.1v-2.4h5.3v-0.5h-5.7V397.6z"/><path d="M69.5 389v-0.5l-5.7 2.1v0.4l5.7 2.2v-0.5l-1.6-0.6v-2.6L69.5 389zM64.4 390.9L64.4 390.9l3.1-1.2v2.3L64.4 390.9z"/><path d="M63.8 384.3v3.4h5.7v-1.9c0-0.6-0.1-1.1-0.4-1.4s-0.7-0.5-1.2-0.5c-0.5 0-0.9 0.2-1.2 0.5s-0.4 0.8-0.4 1.4v1.4h-2.1v-3H63.8zM66.6 385.8c0-0.5 0.1-0.8 0.3-1.1s0.5-0.3 0.9-0.3c0.4 0 0.6 0.1 0.9 0.3s0.3 0.6 0.3 1.1v1.4h-2.4V385.8z"/><path d="M69.5 376.2v-0.6l0 0 -2.9 2.5 -2.8-2.4 0 0v0.5l2.6 2.2v0.8h-2.6v0.5h5.7v-0.5h-2.7v-0.8L69.5 376.2z"/><path d="M68.6 374.2L68.6 374.2l-4.9 0v0.5h5.7v-0.5l-4.9-3.2 0 0h4.9v-0.5h-5.7v0.5L68.6 374.2z"/><path d="M69.5 365.4v-0.6l0 0 -2.9 2.5 -2.8-2.4 0 0v0.5l2.6 2.2v0.8h-2.6v0.5h5.7v-0.5h-2.7v-0.8L69.5 365.4z"/><path d="M69.5 360.3v-0.5l-5.7 2.1v0.4l5.7 2.2v-0.5l-1.6-0.6v-2.6L69.5 360.3zM64.4 362.2L64.4 362.2l3.1-1.2v2.3L64.4 362.2z"/><path d="M63.8 339.7v0.6l2.8-1.9 2.9 2v-0.6l-2.5-1.7 2.5-1.7v-0.6l-2.9 2 -2.8-1.9v0.6l2.4 1.6L63.8 339.7z"/><path d="M69.5 331.3v-0.5l-5.7 2.1v0.4l5.7 2.2v-0.5l-1.6-0.6v-2.6L69.5 331.3zM64.4 333.2L64.4 333.2l3.1-1.2v2.3L64.4 333.2z"/><path d="M69.5 326.3v-0.6l0 0 -2.9 2.5 -2.8-2.4 0 0v0.5l2.6 2.2v0.8h-2.6v0.5h5.7v-0.5h-2.7v-0.8L69.5 326.3z"/><path d="M63.8 324l2.6 0.1c1 0 1.8 0.1 2.1 0.3s0.6 0.4 0.6 0.8v0.1h0.4v-0.2c0-0.6-0.2-1-0.7-1.2s-1.3-0.4-2.4-0.4l-2.2-0.1v-2.4h5.3v-0.5h-5.7V324z"/><path d="M69.5 315.5V315l-5.7 2.1v0.4l5.7 2.2v-0.5l-1.6-0.6v-2.6L69.5 315.5zM64.4 317.4L64.4 317.4l3.1-1.2v2.3L64.4 317.4z"/><path d="M63.8 310.8v3.4h5.7v-1.9c0-0.6-0.1-1.1-0.4-1.4 -0.3-0.3-0.7-0.5-1.2-0.5 -0.5 0-0.9 0.2-1.2 0.5 -0.3 0.3-0.4 0.8-0.4 1.4v1.4h-2.1v-3H63.8zM66.6 312.3c0-0.5 0.1-0.8 0.3-1.1s0.5-0.3 0.9-0.3c0.4 0 0.6 0.1 0.9 0.3s0.3 0.6 0.3 1.1v1.4h-2.4V312.3z"/><path d="M69.5 302.7v-0.6l0 0 -2.9 2.5 -2.8-2.4 0 0v0.5l2.6 2.2v0.8h-2.6v0.5h5.7v-0.5h-2.7v-0.8L69.5 302.7z"/><path d="M68.6 300.7L68.6 300.7l-4.9 0v0.5h5.7v-0.5l-4.9-3.2 0 0h4.9V297h-5.7v0.5L68.6 300.7z"/><path d="M69.5 291.9v-0.6l0 0 -2.9 2.5 -2.8-2.4 0 0v0.5l2.6 2.2v0.8h-2.6v0.5h5.7v-0.5h-2.7v-0.8L69.5 291.9z"/><path d="M69.5 286.8v-0.5l-5.7 2.1v0.4l5.7 2.2v-0.5l-1.6-0.6v-2.6L69.5 286.8zM64.4 288.7L64.4 288.7l3.1-1.2v2.3L64.4 288.7z"/><rect x="62.4" y="283.5" class="st2" width="14.2" height="206.9"/><path class="st0" d="M65 216.9c0 0.9 0.7 1.6 1.6 1.6s1.6-0.7 1.6-1.6 -0.7-1.6-1.6-1.6C65.7 215.2 65 216 65 216.9M62.4 216.9c0-2.3 1.9-4.3 4.3-4.3s4.3 1.9 4.3 4.3 -1.9 4.3-4.3 4.3S62.4 219.2 62.4 216.9z"/><path class="st1" d="M65 143.1c0 0.9 0.7 1.6 1.6 1.6 0.9 0 1.6-0.7 1.6-1.6s-0.7-1.6-1.6-1.6C65.7 141.5 65 142.3 65 143.1M62.4 143.1c0-2.3 1.9-4.3 4.3-4.3 2.3 0 4.3 1.9 4.3 4.3s-1.9 4.3-4.3 4.3C64.3 147.4 62.4 145.5 62.4 143.1z"/><path d="M63.8 280v0.6l2.8-1.9 2.9 2v-0.6l-2.5-1.7 2.5-1.7v-0.6l-2.9 2 -2.8-1.9v0.6l2.4 1.6L63.8 280z"/><path d="M69.5 271.6v-0.5l-5.7 2.1v0.4l5.7 2.2v-0.5l-1.6-0.6v-2.6L69.5 271.6zM64.4 273.5L64.4 273.5l3.1-1.2v2.3L64.4 273.5z"/><path d="M69.5 266.6V266l0 0 -2.9 2.5 -2.8-2.4 0 0v0.5l2.6 2.2v0.8h-2.6v0.5h5.7v-0.5h-2.7V269L69.5 266.6z"/><path d="M63.8 264.3l2.6 0.1c1 0 1.8 0.1 2.1 0.3s0.6 0.4 0.6 0.8v0.1h0.4v-0.2c0-0.6-0.2-1-0.7-1.2s-1.3-0.4-2.4-0.4l-2.2-0.1v-2.4h5.3V261h-5.7V264.3z"/><path d="M69.5 255.8v-0.5l-5.7 2.1v0.4l5.7 2.2v-0.5l-1.6-0.6v-2.6L69.5 255.8zM64.4 257.7L64.4 257.7l3.1-1.2v2.3L64.4 257.7z"/><path d="M63.8 251v3.4h5.7v-1.9c0-0.6-0.1-1.1-0.4-1.4s-0.7-0.5-1.2-0.5c-0.5 0-0.9 0.2-1.2 0.5s-0.4 0.8-0.4 1.4v1.4h-2.1v-3H63.8zM66.6 252.6c0-0.5 0.1-0.8 0.3-1.1s0.5-0.3 0.9-0.3c0.4 0 0.6 0.1 0.9 0.3s0.3 0.6 0.3 1.1v1.4h-2.4V252.6z"/><path d="M69.5 243v-0.6l0 0 -2.9 2.5 -2.8-2.4 0 0v0.5l2.6 2.2v0.8h-2.6v0.5h5.7v-0.5h-2.7v-0.8L69.5 243z"/><path d="M68.6 241L68.6 241l-4.9 0v0.5h5.7V241l-4.9-3.2 0 0h4.9v-0.5h-5.7v0.5L68.6 241z"/><path d="M69.5 232.2v-0.6l0 0 -2.9 2.5 -2.8-2.4 0 0v0.5l2.6 2.2v0.8h-2.6v0.5h5.7v-0.5h-2.7v-0.8L69.5 232.2z"/><path d="M69.5 227.1v-0.5l-5.7 2.1v0.4l5.7 2.2v-0.5l-1.6-0.6v-2.6L69.5 227.1zM64.4 229L64.4 229l3.1-1.2v2.3L64.4 229z"/><path d="M63.8 206.3v0.6l2.8-1.9 2.9 2v-0.6l-2.5-1.7 2.5-1.7v-0.6l-2.9 2 -2.8-1.9v0.6l2.4 1.6L63.8 206.3z"/><path d="M69.5 197.9v-0.5l-5.7 2.1v0.4l5.7 2.2v-0.5l-1.6-0.6v-2.6L69.5 197.9zM64.4 199.8L64.4 199.8l3.1-1.2v2.3L64.4 199.8z"/><path d="M69.5 192.9v-0.6l0 0 -2.9 2.5 -2.8-2.4 0 0v0.5l2.6 2.2v0.8h-2.6v0.5h5.7V196h-2.7v-0.8L69.5 192.9z"/><path d="M63.8 190.6l2.6 0.1c1 0 1.8 0.1 2.1 0.3s0.6 0.4 0.6 0.8v0.1h0.4v-0.2c0-0.6-0.2-1-0.7-1.2s-1.3-0.4-2.4-0.4l-2.2-0.1v-2.4h5.3v-0.5h-5.7V190.6z"/><path d="M69.5 182.1v-0.5l-5.7 2.1v0.4l5.7 2.2v-0.5l-1.6-0.6v-2.6L69.5 182.1zM64.4 184L64.4 184l3.1-1.2v2.3L64.4 184z"/><path d="M63.8 177.3v3.4h5.7v-1.9c0-0.6-0.1-1.1-0.4-1.4s-0.7-0.5-1.2-0.5c-0.5 0-0.9 0.2-1.2 0.5s-0.4 0.8-0.4 1.4v1.4h-2.1v-3H63.8zM66.6 178.9c0-0.5 0.1-0.8 0.3-1.1s0.5-0.3 0.9-0.3c0.4 0 0.6 0.1 0.9 0.3s0.3 0.6 0.3 1.1v1.4h-2.4V178.9z"/><path d="M69.5 169.3v-0.6l0 0 -2.9 2.5 -2.8-2.4 0 0v0.5l2.6 2.2v0.8h-2.6v0.5h5.7v-0.5h-2.7v-0.8L69.5 169.3z"/><path d="M68.6 167.3L68.6 167.3l-4.9 0v0.5h5.7v-0.5l-4.9-3.2 0 0h4.9v-0.5h-5.7v0.5L68.6 167.3z"/><path d="M69.5 158.5v-0.6l0 0 -2.9 2.5 -2.8-2.4 0 0v0.5l2.6 2.2v0.8h-2.6v0.5h5.7v-0.5h-2.7v-0.8L69.5 158.5z"/><path d="M69.5 153.4v-0.5l-5.7 2.1v0.4l5.7 2.2v-0.5l-1.6-0.6V154L69.5 153.4zM64.4 155.3L64.4 155.3l3.1-1.2v2.3L64.4 155.3z"/><path d="M63.8 132.8v0.6l2.8-1.9 2.9 2v-0.6l-2.5-1.7 2.5-1.7V129l-2.9 2 -2.8-1.9v0.6l2.4 1.6L63.8 132.8z"/><path d="M69.5 124.3v-0.5l-5.7 2.1v0.4l5.7 2.2v-0.5l-1.6-0.6v-2.6L69.5 124.3zM64.4 126.2L64.4 126.2l3.1-1.2v2.3L64.4 126.2z"/><path d="M69.5 119.4v-0.6l0 0 -2.9 2.5 -2.8-2.4 0 0v0.5l2.6 2.2v0.8h-2.6v0.5h5.7v-0.5h-2.7v-0.8L69.5 119.4z"/><path d="M63.8 117.1l2.6 0.1c1 0 1.8 0.1 2.1 0.3s0.6 0.4 0.6 0.8v0.1h0.4v-0.2c0-0.6-0.2-1-0.7-1.2s-1.3-0.4-2.4-0.4l-2.2-0.1v-2.4h5.3v-0.5h-5.7V117.1z"/><path d="M69.5 108.6v-0.5l-5.7 2.1v0.4l5.7 2.2v-0.5l-1.6-0.6v-2.6L69.5 108.6zM64.4 110.4L64.4 110.4l3.1-1.2v2.3L64.4 110.4z"/><path d="M63.8 103.8v3.4h5.7v-1.9c0-0.6-0.1-1.1-0.4-1.4s-0.7-0.5-1.2-0.5c-0.5 0-0.9 0.2-1.2 0.5s-0.4 0.8-0.4 1.4v1.4h-2.1v-3H63.8zM66.6 105.4c0-0.5 0.1-0.8 0.3-1.1s0.5-0.3 0.9-0.3c0.4 0 0.6 0.1 0.9 0.3s0.3 0.6 0.3 1.1v1.4h-2.4V105.4z"/><path d="M69.5 95.8v-0.6l0 0 -2.9 2.5 -2.8-2.4 0 0v0.5l2.6 2.2v0.8h-2.6v0.5h5.7v-0.5h-2.7v-0.8L69.5 95.8z"/><path d="M68.6 93.8L68.6 93.8l-4.9 0v0.5h5.7v-0.5l-4.9-3.2 0 0h4.9v-0.5h-5.7v0.5L68.6 93.8z"/><path d="M69.5 85v-0.6l0 0 -2.9 2.5 -2.8-2.4 0 0v0.5l2.6 2.2v0.8h-2.6v0.5h5.7v-0.5h-2.7v-0.8L69.5 85z"/><path d="M69.5 79.9v-0.5l-5.7 2.1V82l5.7 2.2v-0.5L67.9 83v-2.6L69.5 79.9zM64.4 81.7L64.4 81.7l3.1-1.2v2.3L64.4 81.7z"/><rect x="62.4" y="76.5" class="st2" width="14.2" height="206.9"/><path class="st0" d="M143.1 65c-0.9 0-1.6 0.7-1.6 1.6s0.7 1.6 1.6 1.6 1.6-0.7 1.6-1.6S144 65 143.1 65M143.1 62.4c2.3 0 4.3 1.9 4.3 4.3s-1.9 4.3-4.3 4.3c-2.3 0-4.3-1.9-4.3-4.3S140.8 62.4 143.1 62.4z"/><path class="st1" d="M216.9 65c-0.9 0-1.6 0.7-1.6 1.6s0.7 1.6 1.6 1.6c0.9 0 1.6-0.7 1.6-1.6S217.7 65 216.9 65M216.9 62.4c2.3 0 4.3 1.9 4.3 4.3s-1.9 4.3-4.3 4.3c-2.3 0-4.3-1.9-4.3-4.3S214.5 62.4 216.9 62.4z"/><path d="M80 63.8h-0.6l1.9 2.8 -2 2.9h0.6l1.7-2.5 1.7 2.5h0.6l-2-2.9 1.9-2.8h-0.6l-1.6 2.4L80 63.8z"/><path d="M88.4 69.5h0.5l-2.1-5.7h-0.4l-2.2 5.7h0.5l0.6-1.6h2.6L88.4 69.5zM86.5 64.4L86.5 64.4l1.2 3.1h-2.3L86.5 64.4z"/><path d="M93.4 69.5H94l0 0 -2.5-2.9 2.4-2.8 0 0h-0.5L91 66.4h-0.8v-2.6h-0.5v5.7h0.5v-2.7H91L93.4 69.5z"/><path d="M95.7 63.8l-0.1 2.6c0 1-0.1 1.8-0.3 2.1s-0.4 0.6-0.8 0.6h-0.1v0.4h0.2c0.6 0 1-0.2 1.2-0.7s0.4-1.3 0.4-2.4l0.1-2.2h2.4v5.3H99v-5.7H95.7z"/><path d="M104.2 69.5h0.5l-2.1-5.7h-0.4l-2.2 5.7h0.5l0.6-1.6h2.6L104.2 69.5zM102.3 64.4L102.3 64.4l1.2 3.1h-2.3L102.3 64.4z"/><path d="M109 63.8h-3.4v5.7h1.9c0.6 0 1.1-0.1 1.4-0.4s0.5-0.7 0.5-1.2c0-0.5-0.2-0.9-0.5-1.2s-0.8-0.4-1.4-0.4H106v-2.1h3V63.8zM107.4 66.6c0.5 0 0.8 0.1 1.1 0.3s0.3 0.5 0.3 0.9c0 0.4-0.1 0.6-0.3 0.9s-0.6 0.3-1.1 0.3H106v-2.4H107.4z"/><path d="M117 69.5h0.6l0 0 -2.5-2.9 2.4-2.8 0 0h-0.5l-2.2 2.6h-0.8v-2.6h-0.5v5.7h0.5v-2.7h0.8L117 69.5z"/><path d="M119 68.6L119 68.6l0-4.9h-0.5v5.7h0.5l3.2-4.9 0 0v4.9h0.5v-5.7h-0.5L119 68.6z"/><path d="M127.8 69.5h0.6l0 0 -2.5-2.9 2.4-2.8 0 0h-0.5l-2.2 2.6h-0.8v-2.6h-0.5v5.7h0.5v-2.7h0.8L127.8 69.5z"/><path d="M132.9 69.5h0.5l-2.1-5.7h-0.4l-2.2 5.7h0.5l0.6-1.6h2.6L132.9 69.5zM131 64.4L131 64.4l1.2 3.1h-2.3L131 64.4z"/><path d="M153.7 63.8h-0.6l1.9 2.8 -2 2.9h0.6l1.7-2.5 1.7 2.5h0.6l-2-2.9 1.9-2.8h-0.6l-1.6 2.4L153.7 63.8z"/><path d="M162.1 69.5h0.5l-2.1-5.7H160l-2.2 5.7h0.5l0.6-1.6h2.6L162.1 69.5zM160.2 64.4L160.2 64.4l1.2 3.1h-2.3L160.2 64.4z"/><path d="M167.1 69.5h0.6l0 0 -2.5-2.9 2.4-2.8 0 0H167l-2.2 2.6H164v-2.6h-0.5v5.7h0.5v-2.7h0.8L167.1 69.5z"/><path d="M169.4 63.8l-0.1 2.6c0 1-0.1 1.8-0.3 2.1s-0.4 0.6-0.8 0.6H168v0.4h0.2c0.6 0 1-0.2 1.2-0.7s0.4-1.3 0.4-2.4l0.1-2.2h2.4v5.3h0.5v-5.7H169.4z"/><path d="M177.9 69.5h0.5l-2.1-5.7h-0.4l-2.2 5.7h0.5l0.6-1.6h2.6L177.9 69.5zM176 64.4L176 64.4l1.2 3.1h-2.3L176 64.4z"/><path d="M182.7 63.8h-3.4v5.7h1.9c0.6 0 1.1-0.1 1.4-0.4s0.5-0.7 0.5-1.2c0-0.5-0.2-0.9-0.5-1.2s-0.8-0.4-1.4-0.4h-1.4v-2.1h3V63.8zM181.1 66.6c0.5 0 0.8 0.1 1.1 0.3s0.3 0.5 0.3 0.9c0 0.4-0.1 0.6-0.3 0.9s-0.6 0.3-1.1 0.3h-1.4v-2.4H181.1z"/><path d="M190.7 69.5h0.6l0 0 -2.5-2.9 2.4-2.8 0 0h-0.5l-2.2 2.6h-0.8v-2.6h-0.5v5.7h0.5v-2.7h0.8L190.7 69.5z"/><path d="M192.7 68.6L192.7 68.6l0-4.9h-0.5v5.7h0.5l3.2-4.9 0 0v4.9h0.5v-5.7h-0.5L192.7 68.6z"/><path d="M201.5 69.5h0.6l0 0 -2.5-2.9 2.4-2.8 0 0h-0.5l-2.2 2.6h-0.8v-2.6h-0.5v5.7h0.5v-2.7h0.8L201.5 69.5z"/><path d="M206.6 69.5h0.5l-2.1-5.7h-0.4l-2.2 5.7h0.5l0.6-1.6h2.6L206.6 69.5zM204.7 64.4L204.7 64.4l1.2 3.1h-2.3L204.7 64.4z"/><path d="M227.2 63.8h-0.6l1.9 2.8 -2 2.9h0.6l1.7-2.5 1.7 2.5h0.6l-2-2.9 1.9-2.8h-0.6l-1.6 2.4L227.2 63.8z"/><path d="M235.7 69.5h0.5l-2.1-5.7h-0.4l-2.2 5.7h0.5l0.6-1.6h2.6L235.7 69.5zM233.8 64.4L233.8 64.4l1.2 3.1h-2.3L233.8 64.4z"/><path d="M240.6 69.5h0.6l0 0 -2.5-2.9 2.4-2.8 0 0h-0.5l-2.2 2.6h-0.8v-2.6H237v5.7h0.5v-2.7h0.8L240.6 69.5z"/><path d="M242.9 63.8l-0.1 2.6c0 1-0.1 1.8-0.3 2.1s-0.4 0.6-0.8 0.6h-0.1v0.4h0.2c0.6 0 1-0.2 1.2-0.7s0.4-1.3 0.4-2.4l0.1-2.2h2.4v5.3h0.5v-5.7H242.9z"/><path d="M251.4 69.5h0.5l-2.1-5.7h-0.4l-2.2 5.7h0.5l0.6-1.6h2.6L251.4 69.5zM249.6 64.4L249.6 64.4l1.2 3.1h-2.3L249.6 64.4z"/><path d="M256.2 63.8h-3.4v5.7h1.9c0.6 0 1.1-0.1 1.4-0.4 0.3-0.3 0.5-0.7 0.5-1.2 0-0.5-0.2-0.9-0.5-1.2 -0.3-0.3-0.8-0.4-1.4-0.4h-1.4v-2.1h3V63.8zM254.6 66.6c0.5 0 0.8 0.1 1.1 0.3s0.3 0.5 0.3 0.9c0 0.4-0.1 0.6-0.3 0.9s-0.6 0.3-1.1 0.3h-1.4v-2.4H254.6z"/><path d="M264.2 69.5h0.6l0 0 -2.5-2.9 2.4-2.8 0 0h-0.5l-2.2 2.6h-0.8v-2.6h-0.5v5.7h0.5v-2.7h0.8L264.2 69.5z"/><path d="M266.2 68.6L266.2 68.6l0-4.9h-0.5v5.7h0.5l3.2-4.9 0 0v4.9h0.5v-5.7h-0.5L266.2 68.6z"/><path d="M275 69.5h0.6l0 0 -2.5-2.9 2.4-2.8 0 0h-0.5l-2.2 2.6h-0.8v-2.6h-0.5v5.7h0.5v-2.7h0.8L275 69.5z"/><path d="M280.1 69.5h0.5l-2.1-5.7H278l-2.2 5.7h0.5l0.6-1.6h2.6L280.1 69.5zM278.3 64.4L278.3 64.4l1.2 3.1h-2.3L278.3 64.4z"/><rect x="76.5" y="62.4" class="st2" width="206.9" height="14.2"/><path class="st0" d="M350.1 65c-0.9 0-1.6 0.7-1.6 1.6s0.7 1.6 1.6 1.6 1.6-0.7 1.6-1.6S351 65 350.1 65M350.1 62.4c2.3 0 4.3 1.9 4.3 4.3s-1.9 4.3-4.3 4.3 -4.3-1.9-4.3-4.3S347.7 62.4 350.1 62.4z"/><path class="st1" d="M423.8 65c-0.9 0-1.6 0.7-1.6 1.6s0.7 1.6 1.6 1.6 1.6-0.7 1.6-1.6S424.7 65 423.8 65M423.8 62.4c2.3 0 4.3 1.9 4.3 4.3s-1.9 4.3-4.3 4.3 -4.3-1.9-4.3-4.3S421.4 62.4 423.8 62.4z"/><path d="M286.9 63.8h-0.6l1.9 2.8 -2 2.9h0.6l1.7-2.5 1.7 2.5h0.6l-2-2.9 1.9-2.8h-0.6l-1.6 2.4L286.9 63.8z"/><path d="M295.4 69.5h0.5l-2.1-5.7h-0.4l-2.2 5.7h0.5l0.6-1.6h2.6L295.4 69.5zM293.5 64.4L293.5 64.4l1.2 3.1h-2.3L293.5 64.4z"/><path d="M300.3 69.5h0.6l0 0 -2.5-2.9 2.4-2.8 0 0h-0.5l-2.2 2.6h-0.8v-2.6h-0.5v5.7h0.5v-2.7h0.8L300.3 69.5z"/><path d="M302.6 63.8l-0.1 2.6c0 1-0.1 1.8-0.3 2.1s-0.4 0.6-0.8 0.6h-0.1v0.4h0.2c0.6 0 1-0.2 1.2-0.7s0.4-1.3 0.4-2.4l0.1-2.2h2.4v5.3h0.5v-5.7H302.6z"/><path d="M311.2 69.5h0.5l-2.1-5.7h-0.4l-2.2 5.7h0.5l0.6-1.6h2.6L311.2 69.5zM309.3 64.4L309.3 64.4l1.2 3.1h-2.3L309.3 64.4z"/><path d="M315.9 63.8h-3.4v5.7h1.9c0.6 0 1.1-0.1 1.4-0.4s0.5-0.7 0.5-1.2c0-0.5-0.2-0.9-0.5-1.2s-0.8-0.4-1.4-0.4h-1.4v-2.1h3V63.8zM314.4 66.6c0.5 0 0.8 0.1 1.1 0.3s0.3 0.5 0.3 0.9c0 0.4-0.1 0.6-0.3 0.9s-0.6 0.3-1.1 0.3h-1.4v-2.4H314.4z"/><path d="M323.9 69.5h0.6l0 0 -2.5-2.9 2.4-2.8 0 0h-0.5l-2.2 2.6h-0.8v-2.6h-0.5v5.7h0.5v-2.7h0.8L323.9 69.5z"/><path d="M325.9 68.6L325.9 68.6l0-4.9h-0.5v5.7h0.5l3.2-4.9 0 0v4.9h0.5v-5.7h-0.5L325.9 68.6z"/><path d="M334.7 69.5h0.6l0 0 -2.5-2.9 2.4-2.8 0 0h-0.5l-2.2 2.6h-0.8v-2.6h-0.5v5.7h0.5v-2.7h0.8L334.7 69.5z"/><path d="M339.9 69.5h0.5l-2.1-5.7h-0.4l-2.2 5.7h0.5l0.6-1.6h2.6L339.9 69.5zM338 64.4L338 64.4l1.2 3.1h-2.3L338 64.4z"/><path d="M360.6 63.8h-0.6l1.9 2.8 -2 2.9h0.6l1.7-2.5 1.7 2.5h0.6l-2-2.9 1.9-2.8h-0.6l-1.6 2.4L360.6 63.8z"/><path d="M369.1 69.5h0.5l-2.1-5.7H367l-2.2 5.7h0.5l0.6-1.6h2.6L369.1 69.5zM367.2 64.4L367.2 64.4l1.2 3.1H366L367.2 64.4z"/><path d="M374 69.5h0.6l0 0 -2.5-2.9 2.4-2.8 0 0h-0.5l-2.2 2.6h-0.8v-2.6h-0.5v5.7h0.5v-2.7h0.8L374 69.5z"/><path d="M376.3 63.8l-0.1 2.6c0 1-0.1 1.8-0.3 2.1s-0.4 0.6-0.8 0.6h-0.1v0.4h0.2c0.6 0 1-0.2 1.2-0.7s0.4-1.3 0.4-2.4l0.1-2.2h2.4v5.3h0.5v-5.7H376.3z"/><path d="M384.9 69.5h0.5l-2.1-5.7h-0.4l-2.2 5.7h0.5l0.6-1.6h2.6L384.9 69.5zM383 64.4L383 64.4l1.2 3.1h-2.3L383 64.4z"/><path d="M389.6 63.8h-3.4v5.7h1.9c0.6 0 1.1-0.1 1.4-0.4s0.5-0.7 0.5-1.2c0-0.5-0.2-0.9-0.5-1.2s-0.8-0.4-1.4-0.4h-1.4v-2.1h3V63.8zM388.1 66.6c0.5 0 0.8 0.1 1.1 0.3s0.3 0.5 0.3 0.9c0 0.4-0.1 0.6-0.3 0.9s-0.6 0.3-1.1 0.3h-1.4v-2.4H388.1z"/><path d="M397.6 69.5h0.6l0 0 -2.5-2.9 2.4-2.8 0 0h-0.5l-2.2 2.6h-0.8v-2.6H394v5.7h0.5v-2.7h0.8L397.6 69.5z"/><path d="M399.6 68.6L399.6 68.6l0-4.9h-0.5v5.7h0.5l3.2-4.9 0 0v4.9h0.5v-5.7h-0.5L399.6 68.6z"/><path d="M408.4 69.5h0.6l0 0 -2.5-2.9 2.4-2.8 0 0h-0.5l-2.2 2.6h-0.8v-2.6h-0.5v5.7h0.5v-2.7h0.8L408.4 69.5z"/><path d="M413.6 69.5h0.5l-2.1-5.7h-0.4l-2.2 5.7h0.5l0.6-1.6h2.6L413.6 69.5zM411.7 64.4L411.7 64.4l1.2 3.1h-2.3L411.7 64.4z"/><path d="M434.1 63.8h-0.6l1.9 2.8 -2 2.9h0.6l1.7-2.5 1.7 2.5h0.6l-2-2.9 1.9-2.8h-0.6l-1.6 2.4L434.1 63.8z"/><path d="M442.6 69.5h0.5l-2.1-5.7h-0.4l-2.2 5.7h0.5l0.6-1.6h2.6L442.6 69.5zM440.7 64.4L440.7 64.4l1.2 3.1h-2.3L440.7 64.4z"/><path d="M447.6 69.5h0.6l0 0 -2.5-2.9 2.4-2.8 0 0h-0.5l-2.2 2.6h-0.8v-2.6h-0.5v5.7h0.5v-2.7h0.8L447.6 69.5z"/><path d="M449.8 63.8l-0.1 2.6c0 1-0.1 1.8-0.3 2.1s-0.4 0.6-0.8 0.6h-0.1v0.4h0.2c0.6 0 1-0.2 1.2-0.7s0.4-1.3 0.4-2.4l0.1-2.2h2.4v5.3h0.5v-5.7H449.8z"/><path d="M458.4 69.5h0.5l-2.1-5.7h-0.4l-2.2 5.7h0.5l0.6-1.6h2.6L458.4 69.5zM456.5 64.4L456.5 64.4l1.2 3.1h-2.3L456.5 64.4z"/><path d="M463.1 63.8h-3.4v5.7h1.9c0.6 0 1.1-0.1 1.4-0.4s0.5-0.7 0.5-1.2c0-0.5-0.2-0.9-0.5-1.2s-0.8-0.4-1.4-0.4h-1.4v-2.1h3V63.8zM461.6 66.6c0.5 0 0.8 0.1 1.1 0.3s0.3 0.5 0.3 0.9c0 0.4-0.1 0.6-0.3 0.9s-0.6 0.3-1.1 0.3h-1.4v-2.4H461.6z"/><path d="M471.2 69.5h0.6l0 0 -2.5-2.9 2.4-2.8 0 0H471l-2.2 2.6H468v-2.6h-0.5v5.7h0.5v-2.7h0.8L471.2 69.5z"/><path d="M473.1 68.6L473.1 68.6l0-4.9h-0.5v5.7h0.5l3.2-4.9 0 0v4.9h0.5v-5.7h-0.5L473.1 68.6z"/><path d="M481.9 69.5h0.6l0 0 -2.5-2.9 2.4-2.8 0 0h-0.5l-2.2 2.6h-0.8v-2.6h-0.5v5.7h0.5v-2.7h0.8L481.9 69.5z"/><path d="M487.1 69.5h0.5l-2.1-5.7H485l-2.2 5.7h0.5l0.6-1.6h2.6L487.1 69.5zM485.2 64.4L485.2 64.4l1.2 3.1H484L485.2 64.4z"/><rect x="283.5" y="62.4" class="st2" width="206.9" height="14.2"/><path class="st3" d="M500.3 501.9L500.3 501.9l0.2 0 0.1 0 0.1 0 0.1 0 0.1 0 0.1-0.1 0.1-0.1 0.1-0.1 0.1-0.1 0.1-0.1 0.1-0.1 0.1-0.1 0.1-0.1 0.1-0.1 0.1-0.1 0-0.1 0-0.1 0-0.1 0-0.1 0-0.1 0-0.1 0-0.1 0-0.1 0-0.1 0-0.1 0-0.1 0-0.1 -0.1-0.1 -0.1-0.1 -0.1-0.1 -0.1-0.1 -0.1-0.1 -0.1-0.1 -0.1-0.1 -0.1-0.1 -0.1-0.1 -0.1-0.1 -0.1 0 -0.1 0 -0.1 0 -0.1 0 -0.1 0 -0.1 0 -0.1 0 -0.1 0 -0.1 0 -0.1 0 -0.1 0 -0.1 0 -0.1 0.1 -0.1 0.1 -0.1 0.1 -0.1 0.1 -0.1 0.1 -0.1 0.1 -0.1 0.1 -0.1 0.1 -0.1 0.1 -0.1 0.1 0 0.1 0 0.1 0 0.1 0 0.1 0 0.1 0 0.1 0 0.1 0 0.1 0 0.1 0 0.1 0 0.1 0 0.1 0.1 0.1 0.1 0.1 0.1 0.1 0.1 0.1 0.1 0.1 0.1 0.1 0.1 0.1 0.1 0.1 0.1 0.1 0.1 0.1 0.1 0 0.1 0 0.1 0 0.1 0L500.3 501.9 500.3 501.9M500.3 504.6l-0.2 0 -0.2 0 -0.2 0 -0.2 0 -0.2 0 -0.2-0.1 -0.2-0.1 -0.2-0.1 -0.2-0.1 -0.2-0.1 -0.2-0.1 -0.2-0.1 -0.2-0.1 -0.2-0.1 -0.2-0.1 -0.1-0.1 -0.1-0.1L497 503l-0.1-0.2 -0.1-0.2 -0.1-0.2 -0.1-0.2 -0.1-0.2 -0.1-0.2 -0.1-0.2 -0.1-0.2 -0.1-0.2 0-0.2 0-0.2 0-0.2 0-0.2 0-0.2 0-0.2 0-0.2 0-0.2 0-0.2 0-0.2 0.1-0.2 0.1-0.2 0.1-0.2 0.1-0.2 0.1-0.2 0.1-0.2 0.1-0.2 0.1-0.2 0.1-0.2 0.1-0.2 0.1-0.1 0.1-0.1 0.2-0.1 0.2-0.1 0.2-0.1 0.2-0.1 0.2-0.1 0.2-0.1 0.2-0.1 0.2-0.1 0.2-0.1 0.2-0.1 0.2 0 0.2 0 0.2 0 0.2 0 0.2 0 0.2 0 0.2 0 0.2 0 0.2 0 0.2 0 0.2 0.1 0.2 0.1 0.2 0.1 0.2 0.1 0.2 0.1 0.2 0.1 0.2 0.1 0.2 0.1 0.2 0.1 0.2 0.1 0.1 0.1 0.1 0.1 0.1 0.2 0.1 0.2 0.1 0.2 0.1 0.2 0.1 0.2 0.1 0.2 0.1 0.2 0.1 0.2 0.1 0.2 0.1 0.2 0 0.2 0 0.2 0 0.2 0 0.2 0 0.2 0 0.2 0 0.2 0 0.2 0 0.2 0 0.2 -0.1 0.2 -0.1 0.2 -0.1 0.2 -0.1 0.2 -0.1 0.2 -0.1 0.2 -0.1 0.2 -0.1 0.2 -0.1 0.2 -0.1 0.2 -0.1 0.1 -0.1 0.1 -0.2 0.1 -0.2 0.1 -0.2 0.1 -0.2 0.1 -0.2 0.1 -0.2 0.1 -0.2 0.1 -0.2 0.1 -0.2 0.1 -0.2 0.1 -0.2 0 -0.2 0 -0.2 0 -0.2 0L500.3 504.6z"/><rect x="490.4" y="490.4" class="st2" width="14.2" height="14.2"/><path class="st3" d="M65 500.3L65 500.3l0 0.2 0 0.1 0 0.1 0 0.1 0 0.1 0.1 0.1 0.1 0.1 0.1 0.1 0.1 0.1 0.1 0.1 0.1 0.1 0.1 0.1 0.1 0.1 0.1 0.1 0.1 0.1 0.1 0 0.1 0 0.1 0 0.1 0 0.1 0 0.1 0 0.1 0 0.1 0 0.1 0 0.1 0 0.1 0 0.1 0 0.1-0.1 0.1-0.1 0.1-0.1 0.1-0.1 0.1-0.1 0.1-0.1 0.1-0.1 0.1-0.1 0.1-0.1 0.1-0.1 0-0.1 0-0.1 0-0.1 0-0.1 0-0.1 0-0.1 0-0.1 0-0.1 0-0.1 0-0.1 0-0.1 0-0.1 -0.1-0.1 -0.1-0.1 -0.1-0.1 -0.1-0.1 -0.1-0.1 -0.1-0.1 -0.1-0.1 -0.1-0.1 -0.1-0.1 -0.1-0.1 -0.1 0 -0.1 0 -0.1 0 -0.1 0 -0.1 0 -0.1 0 -0.1 0 -0.1 0 -0.1 0 -0.1 0 -0.1 0 -0.1 0 -0.1 0.1 -0.1 0.1 -0.1 0.1 -0.1 0.1 -0.1 0.1 -0.1 0.1 -0.1 0.1 -0.1 0.1 -0.1 0.1 -0.1 0.1 0 0.1 0 0.1 0 0.1 0 0.1L65 500.3 65 500.3M62.4 500.3l0-0.2 0-0.2 0-0.2 0-0.2 0-0.2 0.1-0.2 0.1-0.2 0.1-0.2 0.1-0.2 0.1-0.2 0.1-0.2 0.1-0.2 0.1-0.2 0.1-0.2 0.1-0.2 0.1-0.1 0.1-0.1 0.2-0.1 0.2-0.1 0.2-0.1 0.2-0.1 0.2-0.1 0.2-0.1 0.2-0.1 0.2-0.1 0.2-0.1 0.2-0.1 0.2 0 0.2 0 0.2 0 0.2 0 0.2 0 0.2 0 0.2 0 0.2 0 0.2 0 0.2 0 0.2 0.1 0.2 0.1 0.2 0.1 0.2 0.1 0.2 0.1 0.2 0.1 0.2 0.1 0.2 0.1 0.2 0.1 0.2 0.1 0.1 0.1 0.1 0.1 0.1 0.2 0.1 0.2 0.1 0.2 0.1 0.2 0.1 0.2 0.1 0.2 0.1 0.2 0.1 0.2 0.1 0.2 0.1 0.2 0 0.2 0 0.2 0 0.2 0 0.2 0 0.2 0 0.2 0 0.2 0 0.2 0 0.2 0 0.2 -0.1 0.2 -0.1 0.2 -0.1 0.2 -0.1 0.2 -0.1 0.2 -0.1 0.2 -0.1 0.2 -0.1 0.2 -0.1 0.2 -0.1 0.2 -0.1 0.1 -0.1 0.1 -0.2 0.1 -0.2 0.1 -0.2 0.1 -0.2 0.1 -0.2 0.1 -0.2 0.1 -0.2 0.1 -0.2 0.1 -0.2 0.1 -0.2 0.1 -0.2 0 -0.2 0 -0.2 0 -0.2 0 -0.2 0 -0.2 0 -0.2 0 -0.2 0 -0.2 0 -0.2 0 -0.2-0.1 -0.2-0.1 -0.2-0.1 -0.2-0.1 -0.2-0.1 -0.2-0.1 -0.2-0.1 -0.2-0.1 -0.2-0.1 -0.2-0.1 -0.1-0.1 -0.1-0.1 -0.1-0.2 -0.1-0.2 -0.1-0.2 -0.1-0.2 -0.1-0.2 -0.1-0.2 -0.1-0.2 -0.1-0.2 -0.1-0.2 -0.1-0.2 0-0.2 0-0.2 0-0.2 0-0.2L62.4 500.3z"/><rect x="62.4" y="490.4" class="st2" width="14.2" height="14.2"/><path class="st3" d="M66.6 65L66.6 65l-0.2 0 -0.1 0 -0.1 0 -0.1 0 -0.1 0L66 65.1l-0.1 0.1 -0.1 0.1 -0.1 0.1 -0.1 0.1 -0.1 0.1 -0.1 0.1 -0.1 0.1L65.1 66l-0.1 0.1 0 0.1 0 0.1 0 0.1 0 0.1 0 0.1 0 0.1 0 0.1 0 0.1 0 0.1 0 0.1 0 0.1 0 0.1 0.1 0.1 0.1 0.1 0.1 0.1 0.1 0.1 0.1 0.1 0.1 0.1 0.1 0.1 0.1 0.1 0.1 0.1 0.1 0.1 0.1 0 0.1 0 0.1 0 0.1 0 0.1 0 0.1 0 0.1 0 0.1 0 0.1 0 0.1 0 0.1 0 0.1 0 0.1-0.1 0.1-0.1 0.1-0.1 0.1-0.1 0.1-0.1 0.1-0.1 0.1-0.1 0.1-0.1 0.1-0.1 0.1-0.1 0-0.1 0-0.1 0-0.1 0-0.1 0-0.1 0-0.1 0-0.1 0-0.1 0-0.1 0-0.1 0-0.1 0-0.1L68.1 66 68 65.8 68 65.7l-0.1-0.1 -0.1-0.1 -0.1-0.1 -0.1-0.1 -0.1-0.1 -0.1-0.1 -0.1-0.1L67 65l-0.1 0 -0.1 0 -0.1 0L66.6 65 66.6 65M66.6 62.4l0.2 0 0.2 0 0.2 0 0.2 0 0.2 0 0.2 0.1 0.2 0.1 0.2 0.1 0.2 0.1 0.2 0.1 0.2 0.1 0.2 0.1 0.2 0.1 0.2 0.1 0.2 0.1 0.1 0.1 0.1 0.1 0.1 0.2 0.1 0.2 0.1 0.2 0.1 0.2 0.1 0.2 0.1 0.2 0.1 0.2 0.1 0.2 0.1 0.2 0.1 0.2 0 0.2 0 0.2 0 0.2 0 0.2 0 0.2 0 0.2 0 0.2 0 0.2 0 0.2 0 0.2 -0.1 0.2 -0.1 0.2 -0.1 0.2 -0.1 0.2 -0.1 0.2 -0.1 0.2L70.1 69 70 69.2l-0.1 0.2 -0.1 0.2 -0.1 0.1 -0.1 0.1 -0.2 0.1L69.2 70 69 70.1l-0.2 0.1 -0.2 0.1 -0.2 0.1 -0.2 0.1 -0.2 0.1 -0.2 0.1 -0.2 0.1 -0.2 0 -0.2 0 -0.2 0 -0.2 0 -0.2 0 -0.2 0 -0.2 0 -0.2 0 -0.2 0 -0.2 0 -0.2-0.1 -0.2-0.1L65 70.5l-0.2-0.1 -0.2-0.1 -0.2-0.1 -0.2-0.1L64.1 70l-0.2-0.1 -0.2-0.1 -0.1-0.1 -0.1-0.1 -0.1-0.2 -0.1-0.2L63.1 69 63 68.8l-0.1-0.2 -0.1-0.2 -0.1-0.2 -0.1-0.2 -0.1-0.2 -0.1-0.2 0-0.2 0-0.2 0-0.2 0-0.2 0-0.2 0-0.2 0-0.2 0-0.2 0-0.2 0-0.2 0.1-0.2 0.1-0.2 0.1-0.2 0.1-0.2 0.1-0.2 0.1-0.2 0.1-0.2 0.1-0.2 0.1-0.2 0.1-0.2 0.1-0.1 0.1-0.1 0.2-0.1 0.2-0.1 0.2-0.1 0.2-0.1 0.2-0.1 0.2-0.1 0.2-0.1 0.2-0.1 0.2-0.1 0.2-0.1 0.2 0 0.2 0 0.2 0 0.2 0L66.6 62.4z"/><rect x="62.4" y="62.4" class="st2" width="14.2" height="14.2"/><path class="st3" d="M501.9 66.6L501.9 66.6l0-0.2 0-0.1 0-0.1 0-0.1 0-0.1 -0.1-0.1 -0.1-0.1 -0.1-0.1 -0.1-0.1 -0.1-0.1 -0.1-0.1 -0.1-0.1 -0.1-0.1 -0.1-0.1 -0.1-0.1 -0.1 0 -0.1 0 -0.1 0 -0.1 0 -0.1 0 -0.1 0 -0.1 0 -0.1 0 -0.1 0 -0.1 0 -0.1 0 -0.1 0 -0.1 0.1 -0.1 0.1 -0.1 0.1 -0.1 0.1 -0.1 0.1 -0.1 0.1 -0.1 0.1 -0.1 0.1 -0.1 0.1 -0.1 0.1 0 0.1 0 0.1 0 0.1 0 0.1 0 0.1 0 0.1 0 0.1 0 0.1 0 0.1 0 0.1 0 0.1 0 0.1 0.1 0.1 0.1 0.1 0.1 0.1 0.1 0.1 0.1 0.1 0.1 0.1 0.1 0.1 0.1 0.1 0.1 0.1 0.1 0.1 0.1 0 0.1 0 0.1 0 0.1 0 0.1 0 0.1 0 0.1 0 0.1 0 0.1 0 0.1 0 0.1 0 0.1 0 0.1-0.1 0.1-0.1 0.1-0.1 0.1-0.1 0.1-0.1 0.1-0.1 0.1-0.1 0.1-0.1 0.1-0.1 0.1-0.1 0-0.1 0-0.1 0-0.1 0-0.1L501.9 66.6 501.9 66.6M504.6 66.6l0 0.2 0 0.2 0 0.2 0 0.2 0 0.2 -0.1 0.2 -0.1 0.2 -0.1 0.2 -0.1 0.2 -0.1 0.2 -0.1 0.2 -0.1 0.2 -0.1 0.2 -0.1 0.2 -0.1 0.2 -0.1 0.1 -0.1 0.1 -0.2 0.1 -0.2 0.1 -0.2 0.1 -0.2 0.1 -0.2 0.1 -0.2 0.1 -0.2 0.1 -0.2 0.1 -0.2 0.1 -0.2 0.1 -0.2 0 -0.2 0 -0.2 0 -0.2 0 -0.2 0 -0.2 0 -0.2 0 -0.2 0 -0.2 0 -0.2 0 -0.2-0.1 -0.2-0.1 -0.2-0.1 -0.2-0.1 -0.2-0.1 -0.2-0.1 -0.2-0.1 -0.2-0.1 -0.2-0.1 -0.2-0.1 -0.1-0.1 -0.1-0.1 -0.1-0.2 -0.1-0.2 -0.1-0.2 -0.1-0.2 -0.1-0.2 -0.1-0.2 -0.1-0.2 -0.1-0.2 -0.1-0.2 -0.1-0.2 0-0.2 0-0.2 0-0.2 0-0.2 0-0.2 0-0.2 0-0.2 0-0.2 0-0.2 0-0.2 0.1-0.2 0.1-0.2 0.1-0.2 0.1-0.2 0.1-0.2 0.1-0.2 0.1-0.2 0.1-0.2 0.1-0.2 0.1-0.2 0.1-0.1 0.1-0.1 0.2-0.1 0.2-0.1 0.2-0.1 0.2-0.1 0.2-0.1 0.2-0.1 0.2-0.1 0.2-0.1 0.2-0.1 0.2-0.1 0.2 0 0.2 0 0.2 0 0.2 0 0.2 0 0.2 0 0.2 0 0.2 0 0.2 0 0.2 0 0.2 0.1 0.2 0.1 0.2 0.1 0.2 0.1 0.2 0.1 0.2 0.1 0.2 0.1 0.2 0.1 0.2 0.1 0.2 0.1 0.1 0.1 0.1 0.1 0.1 0.2 0.1 0.2 0.1 0.2 0.1 0.2 0.1 0.2 0.1 0.2 0.1 0.2 0.1 0.2 0.1 0.2 0.1 0.2 0 0.2 0 0.2 0 0.2 0 0.2L504.6 66.6z"/><rect x="490.4" y="62.4" class="st2" width="14.2" height="14.2"/><g transform="translate(0,-343.70079)"><g transform="matrix(0.60332491,0,0,0.60332491,92.58242,437.2244)"><path d="M362.8 333.9h42.4c-2.4-5.9-3.6-12.3-3.6-19 0-6.6 1.3-13 3.6-18.8h-43.3l70.6-70.6c-11.9-5.2-21.5-14.8-26.7-26.7l-70.5 70.5v-43.1c-5.9 2.3-12.2 3.6-18.9 3.6 -6.7 0-13.1-1.3-19-3.6v42.5l-70.2-70.2c-5 11.9-14.5 21.6-26.3 26.9l70.9 70.8h-44.1c2.3 5.8 3.6 12.2 3.6 18.8 0 6.7-1.3 13.2-3.6 19h43.1l-70.3 70.3c11.9 5.2 21.5 14.7 26.7 26.7l70.4-70.5v43.2c5.9-2.3 12.3-3.6 19-3.6 6.7 0 13.1 1.3 18.9 3.6v-44l70.7 70.7c5.3-11.8 15-21.2 26.9-26.3L362.8 333.9zM316.4 334.5c-10.9 0-19.7-8.8-19.7-19.7 0-10.9 8.8-19.7 19.7-19.7 10.9 0 19.7 8.8 19.7 19.7C336 325.7 327.2 334.5 316.4 334.5z"/><path class="st3" d="M179.9 158.6c10.8 0 19.7 8.8 19.7 19.7s-8.8 19.7-19.7 19.7c-10.8 0-19.7-8.8-19.7-19.7C160.2 167.5 169 158.6 179.9 158.6M179.9 126.9c-28.4 0-51.4 23-51.4 51.4s23 51.4 51.4 51.4 51.4-23 51.4-51.4C231.3 149.9 208.2 126.9 179.9 126.9 179.9 126.9 179.9 126.9 179.9 126.9z"/><path class="st1" d="M179.9 295.2c10.8 0 19.7 8.8 19.7 19.7s-8.8 19.7-19.7 19.7c-10.8 0-19.7-8.8-19.7-19.7S169 295.2 179.9 295.2M179.9 263.4c-28.4 0-51.4 23-51.4 51.4s23 51.4 51.4 51.4 51.4-23 51.4-51.4S208.2 263.4 179.9 263.4L179.9 263.4z"/><path class="st1" d="M452.9 295.2c10.8 0 19.7 8.8 19.7 19.7s-8.8 19.7-19.7 19.7 -19.7-8.8-19.7-19.7S442.1 295.2 452.9 295.2M452.9 263.4c-28.4 0-51.4 23-51.4 51.4s23 51.4 51.4 51.4 51.4-23 51.4-51.4S481.3 263.4 452.9 263.4L452.9 263.4z"/><path class="st3" d="M179.9 431.7c10.8 0 19.7 8.8 19.7 19.7s-8.8 19.7-19.7 19.7c-10.8 0-19.7-8.8-19.7-19.7S169 431.7 179.9 431.7M179.9 400c-28.4 0-51.4 23-51.4 51.4s23 51.4 51.4 51.4 51.4-23 51.4-51.4S208.2 400 179.9 400L179.9 400z"/><path class="st0" d="M316.4 431.7c10.8 0 19.7 8.8 19.7 19.7s-8.8 19.7-19.7 19.7 -19.7-8.8-19.7-19.7S305.5 431.7 316.4 431.7M316.4 400c-28.4 0-51.4 23-51.4 51.4s23 51.4 51.4 51.4 51.4-23 51.4-51.4S344.8 400 316.4 400L316.4 400 316.4 400z"/><path class="st3" d="M452.9 431.7c10.8 0 19.7 8.8 19.7 19.7s-8.8 19.7-19.7 19.7 -19.7-8.8-19.7-19.7S442.1 431.7 452.9 431.7M452.9 400c-28.4 0-51.4 23-51.4 51.4s23 51.4 51.4 51.4 51.4-23 51.4-51.4S481.3 400 452.9 400L452.9 400z"/><path class="st0" d="M316.4 158.6c10.8 0 19.7 8.8 19.7 19.7s-8.8 19.7-19.7 19.7 -19.7-8.8-19.7-19.7C296.7 167.5 305.5 158.6 316.4 158.6M316.4 126.9c-28.4 0-51.4 23-51.4 51.4s23 51.4 51.4 51.4 51.4-23 51.4-51.4C367.8 149.9 344.8 126.9 316.4 126.9L316.4 126.9 316.4 126.9z"/><path class="st3" d="M452.9 158.6c10.8 0 19.7 8.8 19.7 19.7s-8.8 19.7-19.7 19.7 -19.7-8.8-19.7-19.7C433.3 167.5 442.1 158.6 452.9 158.6M452.9 126.9c-28.4 0-51.4 23-51.4 51.4s23 51.4 51.4 51.4 51.4-23 51.4-51.4C504.3 149.9 481.3 126.9 452.9 126.9 452.9 126.9 452.9 126.9 452.9 126.9z"/></g></g></svg>