<?xml version="1.0" encoding="utf-8"?>
<!-- Generator: Adobe Illustrator 18.0.0, SVG Export Plug-In . SVG Version: 6.00 Build 0)  -->
<!DOCTYPE svg PUBLIC "-//W3C//DTD SVG 1.1//EN" "http://www.w3.org/Graphics/SVG/1.1/DTD/svg11.dtd">
<svg version="1.1" xmlns="http://www.w3.org/2000/svg" xmlns:xlink="http://www.w3.org/1999/xlink" x="0px" y="0px"
	 viewBox="0 0 864.6 1162.2" enable-background="new 0 0 864.6 1162.2" xml:space="preserve">
<g id="KIKA_in_space">
	<rect id="plane" x="0" y="0" fill="#FFFFFF" width="864.6" height="1162.2"/>
	<path id="circle_1_" fill="#FFFFFF" d="M432.3,790.7c-198,0-358.6-160.5-358.6-358.6c0-198,160.5-358.6,358.6-358.6
		c198.1,0,358.6,160.5,358.6,358.6C790.9,630.1,630.3,790.7,432.3,790.7z"/>
	<path id="outline" d="M432.3,795.7c-49.1,0-96.7-9.6-141.5-28.6c-43.3-18.3-82.2-44.5-115.6-77.9c-33.4-33.4-59.6-72.3-77.9-115.6
		c-19-44.8-28.6-92.4-28.6-141.5c0-49.1,9.6-96.7,28.6-141.5c18.3-43.3,44.5-82.2,77.9-115.6c33.4-33.4,72.3-59.6,115.6-77.9
		c44.8-19,92.4-28.6,141.5-28.6c49.1,0,96.7,9.6,141.5,28.6c43.3,18.3,82.2,44.5,115.6,77.9c33.4,33.4,59.6,72.3,77.9,115.6
		c19,44.8,28.6,92.4,28.6,141.5c0,49.1-9.6,96.7-28.6,141.5c-18.3,43.3-44.5,82.2-77.9,115.6c-33.4,33.4-72.3,59.6-115.6,77.9
		C529,786.1,481.4,795.7,432.3,795.7z M432.3,78.5c-195,0-353.6,158.6-353.6,353.6c0,195,158.6,353.6,353.6,353.6
		c195,0,353.6-158.6,353.6-353.6C785.9,237.1,627.2,78.5,432.3,78.5z"/>
	<g id="In_Space">
		<path d="M147.3,1077.5h57.4v11.5h-57.4V1077.5z"/>
		<path d="M176.3,1053.9h-29v-11.5h57.4v11.5l-29,7.3h29v11.5h-57.4v-11.5L176.3,1053.9z"/>
		<path d="M147.3,998.7h11.2v15.7h11.7v-15.7h34.5v27.2h-11.2v-15.7h-12.2v15.7h-34V998.7z"/>
		<path d="M147.3,964.9h39.6v17.4h17.8v11.5h-57.4V964.9z M175.8,982.3v-5.9h-17.3v5.9H175.8z"/>
		<path d="M147.3,936.9l57.4-4.6v11.5l-14.1,0.7v5.1l14.1,0.7v11.5l-57.4-4.6V936.9z M179.4,945l-20.7,0.7v2.6l20.7,0.7V945z"/>
		<path d="M147.3,898.7h17.1v11.5h-5.9v5.9h35.1v-5.9h-5.9v-11.5h17.1v28.9h-57.4V898.7z"/>
		<path d="M147.3,865.2h11.2v16.9h11.6v-10.1h11.2v10.1h12.3v-16.9h11.2v28.4h-57.4V865.2z"/>
	</g>
	<g id="KIKA">
		<g>
			<path d="M294.5,1089.1h-44.8v-224h44.8v89.3h9.3l14.4-89.3h47l-24,108.2l30.4,115.8h-49.3l-17.6-91.2h-10.2V1089.1z"/>
			<path d="M438.2,865.1v224h-44.8v-224H438.2z"/>
			<path d="M514.4,1089.1h-44.8v-224h44.8v89.3h9.3l14.4-89.3h47l-24,108.2l30.4,115.8h-49.3l-17.6-91.2h-10.2V1089.1z"/>
			<path d="M699.3,865.1l17.9,224h-44.8l-2.6-55H650l-2.6,55h-44.8l17.9-224H699.3z M668,990.5l-2.9-80.6h-10.2l-2.9,80.6H668z"/>
		</g>
	</g>
	<path id="symbol" d="M592.9,492.8c33.4,0,60.5-27.1,60.5-60.5s-27.1-60.5-60.5-60.5c-25.6,0-47.5,15.9-56.3,38.3h-50.9l83.1-83
		c0,0,0,0,0,0c7.4,3.2,15.6,5,24.1,5c33.4,0,60.5-27.1,60.5-60.5s-27.1-60.5-60.5-60.5c-33.4,0-60.5,27.1-60.5,60.5
		c0,8.6,1.8,16.7,5,24.1c0,0,0,0,0,0l-82.9,82.9v-50.8c22.4-8.9,38.2-30.7,38.2-56.3c0-33.4-27.1-60.5-60.5-60.5
		s-60.5,27.1-60.5,60.5c0,25.5,15.8,47.3,38.2,56.2v50l-82.6-82.6c3.1-7.2,4.8-15.2,4.8-23.5c0-33.4-27.1-60.5-60.5-60.5
		s-60.5,27.1-60.5,60.5s27.1,60.4,60.5,60.4c8.8,0,17.2-1.6,24.8-5.4l83.4,83.5h-51.9c0,0,0,0,0,0c-8.8-22.4-30.7-38.3-56.3-38.3
		c-33.4,0-60.5,27.1-60.5,60.5s27.1,60.5,60.5,60.5c25.5,0,47.3-15.8,56.2-38.1h50.7l-82.7,82.7c-7.4-3.2-15.5-5-24.1-5
		c-33.4,0-60.5,27.1-60.5,60.5c0,33.4,27.1,60.5,60.5,60.5s60.5-27.1,60.5-60.5c0-8.6-1.8-16.7-5-24.1c0,0,0,0,0,0l82.9-82.9v50.8
		c-22.4,8.9-38.2,30.7-38.2,56.2c0,33.4,27.1,60.5,60.5,60.5s60.5-27.1,60.5-60.5c0-25.5-15.8-47.4-38.2-56.3v-51.8l83.2,83.2
		c-3.4,7.6-5.3,16-5.3,24.8c0,33.4,27.1,60.5,60.5,60.5c33.4,0,60.5-27.1,60.5-60.5c0-33.4-27.1-60.5-60.5-60.5
		c-8.3,0-16.3,1.7-23.5,4.7l-82.5-82.5h49.8c0,0,0,0,0,0C545.6,477,567.4,492.8,592.9,492.8z M592.9,409.2
		c12.7,0,23.1,10.4,23.1,23.1s-10.4,23.1-23.1,23.1c-12.7,0-23.1-10.4-23.1-23.1S580.2,409.2,592.9,409.2z M592.9,248.5
		c12.7,0,23.1,10.4,23.1,23.1s-10.4,23.1-23.1,23.1c-12.7,0-23.1-10.4-23.1-23.1S580.2,248.5,592.9,248.5z M271.7,294.8
		c-12.7,0-23.1-10.4-23.1-23.1s10.4-23.1,23.1-23.1c12.7,0,23.1,10.4,23.1,23.1S284.4,294.8,271.7,294.8z M271.7,455.4
		c-12.7,0-23.1-10.4-23.1-23.1s10.4-23.1,23.1-23.1c12.7,0,23.1,10.4,23.1,23.1S284.4,455.4,271.7,455.4z M271.7,616
		c-12.7,0-23.1-10.4-23.1-23.1c0-12.7,10.4-23.1,23.1-23.1c12.7,0,23.1,10.4,23.1,23.1C294.8,605.7,284.4,616,271.7,616z
		 M409.2,271.7c0-12.7,10.4-23.1,23.1-23.1c12.7,0,23.1,10.4,23.1,23.1s-10.4,23.1-23.1,23.1C419.5,294.8,409.2,284.4,409.2,271.7z
		 M455.4,592.9c0,12.7-10.4,23.1-23.1,23.1c-12.7,0-23.1-10.4-23.1-23.1c0-12.7,10.4-23.1,23.1-23.1
		C445,569.8,455.4,580.2,455.4,592.9z M432.3,455.4c-12.8,0-23.1-10.4-23.1-23.1c0-12.8,10.4-23.1,23.1-23.1
		c12.8,0,23.1,10.4,23.1,23.1C455.4,445.1,445.1,455.4,432.3,455.4z M592.9,569.8c12.7,0,23.1,10.4,23.1,23.1
		c0,12.7-10.4,23.1-23.1,23.1c-12.7,0-23.1-10.4-23.1-23.1C569.8,580.2,580.2,569.8,592.9,569.8z"/>
</g>
<g id="Guides">
</g>
</svg>
