<?xml version="1.0" encoding="utf-8"?>
<!-- Generator: Adobe Illustrator 15.1.0, SVG Export Plug-In . SVG Version: 6.00 Build 0)  -->
<!DOCTYPE svg PUBLIC "-//W3C//DTD SVG 1.1//EN" "http://www.w3.org/Graphics/SVG/1.1/DTD/svg11.dtd">
<svg version="1.1" id="KIKA_finalno_logo" xmlns="http://www.w3.org/2000/svg" xmlns:xlink="http://www.w3.org/1999/xlink" x="0px"
	 y="0px" width="864.566px" height="1162.205px" viewBox="0 0 864.566 1162.205" enable-background="new 0 0 864.566 1162.205"
	 xml:space="preserve">
<g id="Logo">
	<rect id="podloga" x="0" fill="#FFFFFF" width="864.567" height="1162.205"/>
	<g id="tekst_3_">
		<g id="haklab">
			<path d="M176.966,1061.105l24.151,3.109v12.863l-30.019-6.129l-29.509,6.217v-12.951l23.641-3.109v-1.898l-23.641-3.107v-12.949
				l29.509,6.215l30.019-6.215v12.861l-24.151,3.195V1061.105z"/>
			<path d="M141.59,1013.571l59.527-4.436v11.084l-14.627,0.635v4.907l14.627,0.633v11.086l-59.527-4.436V1013.571z
				 M174.926,1021.329l-21.43,0.713v2.532l21.43,0.715V1021.329z"/>
			<path d="M201.117,992.007v11.459H141.59v-11.459h23.726v-2.371l-23.726-3.684v-12.029l28.743,6.139l30.784-7.777v12.604
				l-24.236,4.502v2.617H201.117z"/>
			<path d="M141.59,932.601h59.527v11.586h-47.962v3.807l47.962,4.635v13.988h-11.565v-4.387l-47.962-4.637V932.601z"/>
			<path d="M141.59,903.019l59.527-4.434v11.086l-14.627,0.635v4.908l14.627,0.633v11.084l-59.527-4.434V903.019z M174.926,910.78
				l-21.43,0.713v2.531l21.43,0.715V910.78z"/>
			<path d="M141.59,892.915v-28.346h11.906v17.07h11.395v-17.07h36.227v28.346H141.59z M189.552,875.843h-13.096v5.797h13.096
				V875.843z"/>
		</g>
		<g id="kika">
			<path d="M266.784,1077.166h-42.706V864.567h42.706v84.736h8.846l13.728-84.736h44.841l-22.878,102.656l28.979,109.942h-46.976
				l-16.777-86.558h-9.762V1077.166z"/>
			<path d="M465.022,864.567v212.599H423.08V969.651l-26.665,107.515h-41.943V864.567h41.943v107.516l26.665-107.516H465.022z"/>
			<path d="M530.406,1077.166H487.7V864.567h42.706v84.736h8.845l13.729-84.736h44.841l-22.878,102.656l28.979,109.942h-46.977
				l-16.775-86.558h-9.763V1077.166z"/>
			<path d="M708.96,864.567l16.851,212.599h-42.124l-2.407-52.238h-18.654l-2.407,52.238h-42.124l16.849-212.599H708.96z
				 M679.474,983.622l-2.708-76.535h-9.628l-2.707,76.535H679.474z"/>
		</g>
	</g>
	<path id="simbol" d="M689.843,528.661c53.229,0,96.378-43.149,96.378-96.378s-43.149-96.378-96.378-96.378
		c-40.774,0-75.634,25.32-89.714,61.095H519.01l132.384-132.321c-0.002-0.001-0.003-0.001-0.005-0.002
		c11.78,5.132,24.783,7.985,38.454,7.985c53.229,0,96.378-43.149,96.378-96.378s-43.149-96.378-96.378-96.378
		s-96.378,43.149-96.378,96.378c0,13.647,2.843,26.629,7.959,38.395c-0.003-0.005-0.006-0.011-0.008-0.016L469.283,346.83v-80.895
		c35.691-14.121,60.938-48.938,60.938-89.652c0-53.229-43.149-96.378-96.378-96.378s-96.378,43.149-96.378,96.378
		c0,40.669,25.19,75.452,60.818,89.603v79.632L266.639,213.815c4.882-11.535,7.582-24.218,7.582-37.532
		c0-53.229-43.149-96.378-96.378-96.378s-96.378,43.149-96.378,96.378s43.149,96.282,96.378,96.282
		c14.099,0,27.489-2.564,39.56-8.564L350.299,397h-82.742c0,0.002,0.001,0.003,0.002,0.005c-14.08-35.777-48.94-61.1-89.716-61.1
		c-53.229,0-96.378,43.149-96.378,96.378s43.149,96.378,96.378,96.378c40.609,0,75.348-25.116,89.539-60.661h80.724L216.24,599.865
		c-11.766-5.117-24.749-7.96-38.397-7.96c-53.229,0-96.378,43.149-96.378,96.378s43.149,96.378,96.378,96.378
		s96.378-43.149,96.378-96.378c0-13.672-2.853-26.677-7.986-38.458c0.001,0.004,0.003,0.008,0.005,0.012l132.043-132.103v80.946
		c-35.628,14.15-60.818,48.934-60.818,89.603c0,53.229,43.149,96.378,96.378,96.378s96.378-43.149,96.378-96.378
		c0-40.715-25.246-75.531-60.938-89.651v-82.521l132.638,132.641c-5.432,12.063-8.456,25.443-8.456,39.531
		c0,53.229,43.149,96.378,96.378,96.378s96.378-43.149,96.378-96.378s-43.149-96.378-96.378-96.378
		c-13.296,0-25.962,2.692-37.484,7.562L520.891,468h79.413c-0.002-0.005-0.004-0.01-0.006-0.015
		C614.486,503.538,649.229,528.661,689.843,528.661z M689.843,395.433c20.319,0,36.851,16.531,36.851,36.851
		s-16.531,36.851-36.851,36.851s-36.851-16.531-36.851-36.851S669.523,395.433,689.843,395.433z M689.843,139.433
		c20.319,0,36.851,16.531,36.851,36.85s-16.531,36.85-36.851,36.85s-36.851-16.531-36.851-36.85S669.523,139.433,689.843,139.433z
		 M177.843,213.133c-20.319,0-36.85-16.531-36.85-36.85s16.531-36.85,36.85-36.85s36.85,16.531,36.85,36.85
		S198.162,213.133,177.843,213.133z M177.843,469.134c-20.319,0-36.85-16.531-36.85-36.851s16.531-36.851,36.85-36.851
		s36.85,16.531,36.85,36.851S198.162,469.134,177.843,469.134z M177.843,725.134c-20.319,0-36.85-16.531-36.85-36.851
		s16.531-36.851,36.85-36.851s36.85,16.531,36.85,36.851S198.162,725.134,177.843,725.134z M396.992,176.283
		c0-20.319,16.531-36.85,36.851-36.85s36.851,16.531,36.851,36.85s-16.531,36.85-36.851,36.85S396.992,196.603,396.992,176.283z
		 M470.693,688.283c0,20.319-16.531,36.851-36.851,36.851s-36.851-16.531-36.851-36.851s16.531-36.851,36.851-36.851
		S470.693,667.964,470.693,688.283z M433.843,469.134c-20.353,0-36.851-16.498-36.851-36.851c0-20.352,16.498-36.851,36.851-36.851
		c20.354,0,36.851,16.499,36.851,36.851C470.693,452.636,454.196,469.134,433.843,469.134z M689.843,651.433
		c20.319,0,36.851,16.531,36.851,36.851s-16.531,36.851-36.851,36.851s-36.851-16.531-36.851-36.851
		S669.523,651.433,689.843,651.433z"/>
</g>
</svg>
