<?xml version="1.0" encoding="utf-8"?>
<!-- Generator: Adobe Illustrator 15.1.0, SVG Export Plug-In . SVG Version: 6.00 Build 0)  -->
<!DOCTYPE svg PUBLIC "-//W3C//DTD SVG 1.1//EN" "http://www.w3.org/Graphics/SVG/1.1/DTD/svg11.dtd">
<svg version="1.1" id="KIKA_finalno_logo" xmlns="http://www.w3.org/2000/svg" xmlns:xlink="http://www.w3.org/1999/xlink" x="0px"
	 y="0px" width="864.567px" height="1162.205px" viewBox="0 0 864.567 1162.205" enable-background="new 0 0 864.567 1162.205"
	 xml:space="preserve">
<g id="Logo">
	<rect id="podloga" width="864.567" height="1162.205"/>
	<g id="tekst_3_">
		<g id="haklab">
			<path fill="#FFFFFF" d="M176.966,1061.105l24.151,3.109v12.863l-30.019-6.129l-29.509,6.217v-12.951l23.641-3.109v-1.898
				l-23.641-3.107v-12.949l29.509,6.215l30.019-6.215v12.861l-24.151,3.195V1061.105z"/>
			<path fill="#FFFFFF" d="M141.59,1013.571l59.527-4.436v11.084l-14.627,0.635v4.907l14.627,0.633v11.086l-59.527-4.436V1013.571z
				 M174.926,1021.329l-21.43,0.713v2.532l21.43,0.715V1021.329z"/>
			<path fill="#FFFFFF" d="M201.118,992.007v11.459H141.59v-11.459h23.726v-2.371l-23.726-3.684v-12.029l28.743,6.139l30.784-7.777
				v12.604l-24.236,4.502v2.617H201.118z"/>
			<path fill="#FFFFFF" d="M141.59,932.601h59.527v11.586h-47.962v3.807l47.962,4.635v13.988h-11.565v-4.387l-47.962-4.637V932.601z
				"/>
			<path fill="#FFFFFF" d="M141.59,903.019l59.527-4.434v11.086l-14.627,0.635v4.908l14.627,0.633v11.084l-59.527-4.434V903.019z
				 M174.926,910.78l-21.43,0.713v2.531l21.43,0.715V910.78z"/>
			<path fill="#FFFFFF" d="M141.59,892.915v-28.346h11.906v17.07h11.395v-17.07h36.227v28.346H141.59z M189.552,875.843h-13.096
				v5.797h13.096V875.843z"/>
		</g>
		<g id="kika">
			<path fill="#FFFFFF" d="M266.785,1077.166h-42.706V864.567h42.706v84.736h8.846l13.728-84.736h44.841l-22.878,102.656
				l28.979,109.942h-46.976l-16.777-86.558h-9.762V1077.166z"/>
			<path fill="#FFFFFF" d="M465.023,864.567v212.599h-41.942V969.651l-26.665,107.515h-41.943V864.567h41.943v107.516
				l26.665-107.516H465.023z"/>
			<path fill="#FFFFFF" d="M530.407,1077.166h-42.706V864.567h42.706v84.736h8.845l13.729-84.736h44.841l-22.878,102.656
				l28.979,109.942h-46.977l-16.775-86.558h-9.763V1077.166z"/>
			<path fill="#FFFFFF" d="M708.96,864.567l16.851,212.599h-42.124l-2.407-52.238h-18.654l-2.407,52.238h-42.124l16.849-212.599
				H708.96z M679.474,983.622l-2.708-76.535h-9.628l-2.707,76.535H679.474z"/>
		</g>
	</g>
	<g id="simbol_3_">
		<path id="linii" fill="#FFFFFF" d="M520.891,468h79.413c-4.41-11.046-6.839-23.097-6.839-35.717
			c0-12.454,2.363-24.356,6.664-35.283H519.01l132.384-132.321c-22.336-9.729-40.266-27.672-49.978-50.017L469.284,346.83v-80.895
			c-10.97,4.34-22.927,6.726-35.44,6.726c-12.56,0-24.557-2.405-35.56-6.775v79.632L266.64,213.815
			c-9.466,22.368-27.136,40.417-49.238,50.378L350.299,397h-82.742c4.301,10.927,6.664,22.829,6.664,35.283
			c0,12.62-2.429,24.671-6.839,35.717h80.724L216.241,599.865c22.337,9.714,40.273,27.641,50,49.972l132.043-132.103v80.946
			c11.003-4.371,23-6.775,35.56-6.775c12.514,0,24.471,2.386,35.44,6.727v-82.521l132.638,132.641
			c9.965-22.13,28.038-39.82,50.438-49.285L520.891,468z M433.843,469.134c-20.353,0-36.851-16.498-36.851-36.851
			c0-20.352,16.498-36.851,36.851-36.851c20.354,0,36.851,16.499,36.851,36.851C470.694,452.636,454.197,469.134,433.843,469.134z"
			/>
		<path id="krug" fill="#FFCC33" d="M177.843,139.433c20.319,0,36.85,16.531,36.85,36.85s-16.531,36.85-36.85,36.85
			s-36.85-16.531-36.85-36.85S157.524,139.433,177.843,139.433 M177.843,79.905c-53.229,0-96.378,43.149-96.378,96.378
			s43.149,96.378,96.378,96.378s96.378-43.149,96.378-96.378S231.072,79.905,177.843,79.905L177.843,79.905z"/>
		<path id="krug_1_" fill="#99CC66" d="M177.843,395.433c20.319,0,36.85,16.531,36.85,36.851s-16.531,36.851-36.85,36.851
			s-36.85-16.531-36.85-36.851S157.524,395.433,177.843,395.433 M177.843,335.905c-53.229,0-96.378,43.149-96.378,96.378
			s43.149,96.378,96.378,96.378s96.378-43.149,96.378-96.378S231.072,335.905,177.843,335.905L177.843,335.905z"/>
		<path id="krug_2_" fill="#99CC66" d="M689.843,395.433c20.319,0,36.851,16.531,36.851,36.851s-16.531,36.851-36.851,36.851
			s-36.851-16.531-36.851-36.851S669.524,395.433,689.843,395.433 M689.843,335.905c-53.229,0-96.378,43.149-96.378,96.378
			s43.149,96.378,96.378,96.378s96.378-43.149,96.378-96.378S743.072,335.905,689.843,335.905L689.843,335.905z"/>
		<path id="krug_3_" fill="#FFCC33" d="M177.843,651.433c20.319,0,36.85,16.531,36.85,36.851s-16.531,36.851-36.85,36.851
			s-36.85-16.531-36.85-36.851S157.524,651.433,177.843,651.433 M177.843,591.905c-53.229,0-96.378,43.149-96.378,96.378
			s43.149,96.378,96.378,96.378s96.378-43.149,96.378-96.378S231.072,591.905,177.843,591.905L177.843,591.905z"/>
		<path id="krug_4_" fill="#99CCCC" d="M433.843,651.433c20.319,0,36.851,16.531,36.851,36.851s-16.531,36.851-36.851,36.851
			s-36.851-16.531-36.851-36.851S413.524,651.433,433.843,651.433 M433.843,591.905c-53.229,0-96.378,43.149-96.378,96.378
			s43.149,96.378,96.378,96.378s96.378-43.149,96.378-96.378S487.072,591.905,433.843,591.905L433.843,591.905z"/>
		<path id="krug_5_" fill="#FFCC33" d="M689.843,651.433c20.319,0,36.851,16.531,36.851,36.851s-16.531,36.851-36.851,36.851
			s-36.851-16.531-36.851-36.851S669.524,651.433,689.843,651.433 M689.843,591.905c-53.229,0-96.378,43.149-96.378,96.378
			s43.149,96.378,96.378,96.378s96.378-43.149,96.378-96.378S743.072,591.905,689.843,591.905L689.843,591.905z"/>
		<path id="krug_6_" fill="#99CCCC" d="M433.843,139.433c20.319,0,36.851,16.531,36.851,36.85s-16.531,36.85-36.851,36.85
			s-36.851-16.531-36.851-36.85S413.524,139.433,433.843,139.433 M433.843,79.905c-53.229,0-96.378,43.149-96.378,96.378
			s43.149,96.378,96.378,96.378s96.378-43.149,96.378-96.378S487.072,79.905,433.843,79.905L433.843,79.905z"/>
		<path id="krug_7_" fill="#FFCC33" d="M689.843,139.433c20.319,0,36.851,16.531,36.851,36.85s-16.531,36.85-36.851,36.85
			s-36.851-16.531-36.851-36.85S669.524,139.433,689.843,139.433 M689.843,79.905c-53.229,0-96.378,43.149-96.378,96.378
			s43.149,96.378,96.378,96.378s96.378-43.149,96.378-96.378S743.072,79.905,689.843,79.905L689.843,79.905z"/>
	</g>
</g>
</svg>
